M48
; DRILL file {KiCad 9.0.6} date 2026-08-01T23:21:46+0700
; FORMAT={-:-/ absolute / metric / decimal}
; #@! TF.CreationDate,2026-08-01T23:21:46+07:00
; #@! TF.GenerationSoftware,Kicad,Pcbnew,9.0.6
; #@! TF.FileFunction,Plated,1,2,PTH
FMAT,2
METRIC
; #@! TA.AperFunction,Plated,PTH,ComponentDrill
T1C0.200
; #@! TA.AperFunction,Plated,PTH,ViaDrill
T2C0.300
; #@! TA.AperFunction,Plated,PTH,ViaDrill
T3C0.350
; #@! TA.AperFunction,Plated,PTH,ViaDrill
T4C0.400
; #@! TA.AperFunction,Plated,PTH,ViaDrill
T5C0.500
; #@! TA.AperFunction,Plated,PTH,ViaDrill
T6C0.600
; #@! TA.AperFunction,Plated,PTH,ComponentDrill
T7C0.600
; #@! TA.AperFunction,Plated,PTH,ComponentDrill
T8C0.800
; #@! TA.AperFunction,Plated,PTH,ComponentDrill
T9C1.000
%
G90
G05
T1
X118.3Y-108.3
X118.3Y-109.5
X118.3Y-110.7
X119.7Y-108.3
X119.7Y-109.5
X119.7Y-110.7
X137.165Y-157.743
X137.165Y-159.577
X138.082Y-156.825
X138.082Y-158.66
X138.082Y-160.495
X139.0Y-157.743
X139.0Y-159.577
X139.917Y-156.825
X139.917Y-158.66
X139.917Y-160.495
X140.835Y-157.743
X140.835Y-159.577
T2
X111.071Y-109.495
X113.817Y-113.721
X115.175Y-144.362
X115.175Y-148.97
X118.95Y-142.381
X119.055Y-116.019
X119.825Y-113.77
X121.086Y-143.588
X121.881Y-161.08
X122.526Y-159.735
X124.919Y-116.019
X126.25Y-107.65
X126.747Y-149.65
X127.977Y-164.89
X128.104Y-128.904
X130.895Y-111.525
X131.003Y-159.81
X131.555Y-154.397
X132.175Y-110.169
X132.787Y-142.381
X132.787Y-155.549
X133.504Y-130.818
X133.916Y-163.426
X134.5Y-113.25
X134.75Y-124.5
X135.176Y-114.38
X137.028Y-105.295
X137.621Y-109.975
X137.64Y-128.939
X138.538Y-144.362
X138.538Y-154.915
X139.636Y-105.302
X140.0Y-134.234
X140.0Y-150.92
X140.787Y-154.121
X141.675Y-110.013
X142.5Y-108.343
X143.304Y-117.304
X143.52Y-115.818
X144.182Y-143.682
X144.182Y-158.54
X144.926Y-151.555
X146.026Y-140.309
X146.123Y-104.179
X148.258Y-141.064
X148.415Y-140.165
X148.435Y-161.001
X151.825Y-162.589
X152.965Y-119.391
X158.874Y-154.757
X159.145Y-160.262
X161.175Y-158.45
X161.951Y-119.091
X164.0Y-139.5
X164.076Y-113.066
X170.5Y-123.517
T3
X115.2Y-103.2
X117.3Y-103.2
X120.4Y-103.2
X121.2Y-103.2
T4
X104.5Y-130.0
X104.5Y-145.0
X106.5Y-111.0
X106.5Y-121.0
X106.5Y-161.0
X106.8Y-158.0
X108.0Y-128.0
X109.65Y-157.05
X109.767Y-112.544
X109.9Y-115.45
X110.866Y-106.345
X113.0Y-104.5
X113.115Y-157.05
X116.55Y-113.764
X123.0Y-114.0
X125.537Y-106.579
X127.5Y-163.5
X129.149Y-134.0
X131.5Y-106.0
X131.606Y-134.659
X135.52Y-137.137
X135.945Y-138.777
X137.456Y-127.427
X137.458Y-114.817
X141.302Y-131.897
X142.15Y-128.5
X142.388Y-134.344
X144.0Y-139.0
X144.5Y-106.0
X145.135Y-148.65
X148.175Y-127.323
X148.5Y-148.5
X150.175Y-163.733
X151.405Y-165.998
X152.0Y-112.5
X155.047Y-108.084
X156.632Y-113.284
X157.972Y-114.817
X158.175Y-108.084
X158.924Y-109.05
X159.949Y-105.176
X160.5Y-114.0
X161.986Y-157.869
X162.1Y-110.95
X163.25Y-108.9
X167.2Y-112.65
X167.2Y-155.65
X167.8Y-108.5
X169.2Y-112.0
X169.2Y-155.0
X169.2Y-159.0
X169.5Y-119.0
X169.5Y-151.0
T5
X102.0Y-151.5
X103.0Y-151.5
X105.743Y-109.7
X106.55Y-108.893
X109.2Y-130.54
X170.4Y-113.756
X171.111Y-113.046
X171.5Y-162.3
X172.2Y-114.5
X172.5Y-162.3
X173.0Y-110.7
X173.2Y-114.5
T6
X108.0Y-130.54
T9
X168.0Y-134.0
X168.0Y-136.0
X168.0Y-138.0
T7
X133.68Y-101.75G85X133.68Y-101.15
G05
X133.68Y-106.18G85X133.68Y-105.08
G05
X142.32Y-101.75G85X142.32Y-101.15
G05
X142.32Y-106.18G85X142.32Y-105.08
G05
T8
X167.6Y-131.85G85X168.4Y-131.85
G05
X167.6Y-140.15G85X168.4Y-140.15
G05
M30
