%TF.GenerationSoftware,KiCad,Pcbnew,9.0.6*%
%TF.CreationDate,2026-08-01T23:21:45+07:00*%
%TF.ProjectId,drone,64726f6e-652e-46b6-9963-61645f706362,rev?*%
%TF.SameCoordinates,Original*%
%TF.FileFunction,Legend,Top*%
%TF.FilePolarity,Positive*%
%FSLAX46Y46*%
G04 Gerber Fmt 4.6, Leading zero omitted, Abs format (unit mm)*
G04 Created by KiCad (PCBNEW 9.0.6) date 2026-08-01 23:21:45*
%MOMM*%
%LPD*%
G01*
G04 APERTURE LIST*
%ADD10C,0.150000*%
%ADD11C,0.120000*%
%ADD12C,0.127000*%
%ADD13C,0.200000*%
G04 APERTURE END LIST*
D10*
X171091442Y-154371428D02*
X171991442Y-154371428D01*
X171991442Y-154371428D02*
X171348585Y-154671428D01*
X171348585Y-154671428D02*
X171991442Y-154971428D01*
X171991442Y-154971428D02*
X171091442Y-154971428D01*
X171091442Y-155871428D02*
X171091442Y-155357142D01*
X171091442Y-155614285D02*
X171991442Y-155614285D01*
X171991442Y-155614285D02*
X171862871Y-155528571D01*
X171862871Y-155528571D02*
X171777157Y-155442856D01*
X171777157Y-155442856D02*
X171734300Y-155357142D01*
X151650000Y-140908557D02*
X151650000Y-140008557D01*
X151650000Y-140008557D02*
X151864286Y-140008557D01*
X151864286Y-140008557D02*
X151992857Y-140051414D01*
X151992857Y-140051414D02*
X152078572Y-140137128D01*
X152078572Y-140137128D02*
X152121429Y-140222842D01*
X152121429Y-140222842D02*
X152164286Y-140394271D01*
X152164286Y-140394271D02*
X152164286Y-140522842D01*
X152164286Y-140522842D02*
X152121429Y-140694271D01*
X152121429Y-140694271D02*
X152078572Y-140779985D01*
X152078572Y-140779985D02*
X151992857Y-140865700D01*
X151992857Y-140865700D02*
X151864286Y-140908557D01*
X151864286Y-140908557D02*
X151650000Y-140908557D01*
X152721429Y-140008557D02*
X152892857Y-140008557D01*
X152892857Y-140008557D02*
X152978572Y-140051414D01*
X152978572Y-140051414D02*
X153064286Y-140137128D01*
X153064286Y-140137128D02*
X153107143Y-140308557D01*
X153107143Y-140308557D02*
X153107143Y-140608557D01*
X153107143Y-140608557D02*
X153064286Y-140779985D01*
X153064286Y-140779985D02*
X152978572Y-140865700D01*
X152978572Y-140865700D02*
X152892857Y-140908557D01*
X152892857Y-140908557D02*
X152721429Y-140908557D01*
X152721429Y-140908557D02*
X152635715Y-140865700D01*
X152635715Y-140865700D02*
X152550000Y-140779985D01*
X152550000Y-140779985D02*
X152507143Y-140608557D01*
X152507143Y-140608557D02*
X152507143Y-140308557D01*
X152507143Y-140308557D02*
X152550000Y-140137128D01*
X152550000Y-140137128D02*
X152635715Y-140051414D01*
X152635715Y-140051414D02*
X152721429Y-140008557D01*
X153407143Y-140008557D02*
X153621429Y-140908557D01*
X153621429Y-140908557D02*
X153792857Y-140265700D01*
X153792857Y-140265700D02*
X153964286Y-140908557D01*
X153964286Y-140908557D02*
X154178572Y-140008557D01*
X154692857Y-140008557D02*
X154864285Y-140008557D01*
X154864285Y-140008557D02*
X154950000Y-140051414D01*
X154950000Y-140051414D02*
X155035714Y-140137128D01*
X155035714Y-140137128D02*
X155078571Y-140308557D01*
X155078571Y-140308557D02*
X155078571Y-140608557D01*
X155078571Y-140608557D02*
X155035714Y-140779985D01*
X155035714Y-140779985D02*
X154950000Y-140865700D01*
X154950000Y-140865700D02*
X154864285Y-140908557D01*
X154864285Y-140908557D02*
X154692857Y-140908557D01*
X154692857Y-140908557D02*
X154607143Y-140865700D01*
X154607143Y-140865700D02*
X154521428Y-140779985D01*
X154521428Y-140779985D02*
X154478571Y-140608557D01*
X154478571Y-140608557D02*
X154478571Y-140308557D01*
X154478571Y-140308557D02*
X154521428Y-140137128D01*
X154521428Y-140137128D02*
X154607143Y-140051414D01*
X154607143Y-140051414D02*
X154692857Y-140008557D01*
X156664285Y-140822842D02*
X156621428Y-140865700D01*
X156621428Y-140865700D02*
X156492856Y-140908557D01*
X156492856Y-140908557D02*
X156407142Y-140908557D01*
X156407142Y-140908557D02*
X156278571Y-140865700D01*
X156278571Y-140865700D02*
X156192856Y-140779985D01*
X156192856Y-140779985D02*
X156149999Y-140694271D01*
X156149999Y-140694271D02*
X156107142Y-140522842D01*
X156107142Y-140522842D02*
X156107142Y-140394271D01*
X156107142Y-140394271D02*
X156149999Y-140222842D01*
X156149999Y-140222842D02*
X156192856Y-140137128D01*
X156192856Y-140137128D02*
X156278571Y-140051414D01*
X156278571Y-140051414D02*
X156407142Y-140008557D01*
X156407142Y-140008557D02*
X156492856Y-140008557D01*
X156492856Y-140008557D02*
X156621428Y-140051414D01*
X156621428Y-140051414D02*
X156664285Y-140094271D01*
X157049999Y-140008557D02*
X157049999Y-140737128D01*
X157049999Y-140737128D02*
X157092856Y-140822842D01*
X157092856Y-140822842D02*
X157135714Y-140865700D01*
X157135714Y-140865700D02*
X157221428Y-140908557D01*
X157221428Y-140908557D02*
X157392856Y-140908557D01*
X157392856Y-140908557D02*
X157478571Y-140865700D01*
X157478571Y-140865700D02*
X157521428Y-140822842D01*
X157521428Y-140822842D02*
X157564285Y-140737128D01*
X157564285Y-140737128D02*
X157564285Y-140008557D01*
X158164285Y-140008557D02*
X158335713Y-140008557D01*
X158335713Y-140008557D02*
X158421428Y-140051414D01*
X158421428Y-140051414D02*
X158507142Y-140137128D01*
X158507142Y-140137128D02*
X158549999Y-140308557D01*
X158549999Y-140308557D02*
X158549999Y-140608557D01*
X158549999Y-140608557D02*
X158507142Y-140779985D01*
X158507142Y-140779985D02*
X158421428Y-140865700D01*
X158421428Y-140865700D02*
X158335713Y-140908557D01*
X158335713Y-140908557D02*
X158164285Y-140908557D01*
X158164285Y-140908557D02*
X158078571Y-140865700D01*
X158078571Y-140865700D02*
X157992856Y-140779985D01*
X157992856Y-140779985D02*
X157949999Y-140608557D01*
X157949999Y-140608557D02*
X157949999Y-140308557D01*
X157949999Y-140308557D02*
X157992856Y-140137128D01*
X157992856Y-140137128D02*
X158078571Y-140051414D01*
X158078571Y-140051414D02*
X158164285Y-140008557D01*
X158935713Y-140908557D02*
X158935713Y-140008557D01*
X158935713Y-140008557D02*
X159449999Y-140908557D01*
X159449999Y-140908557D02*
X159449999Y-140008557D01*
X160349999Y-140051414D02*
X160264285Y-140008557D01*
X160264285Y-140008557D02*
X160135713Y-140008557D01*
X160135713Y-140008557D02*
X160007142Y-140051414D01*
X160007142Y-140051414D02*
X159921427Y-140137128D01*
X159921427Y-140137128D02*
X159878570Y-140222842D01*
X159878570Y-140222842D02*
X159835713Y-140394271D01*
X159835713Y-140394271D02*
X159835713Y-140522842D01*
X159835713Y-140522842D02*
X159878570Y-140694271D01*
X159878570Y-140694271D02*
X159921427Y-140779985D01*
X159921427Y-140779985D02*
X160007142Y-140865700D01*
X160007142Y-140865700D02*
X160135713Y-140908557D01*
X160135713Y-140908557D02*
X160221427Y-140908557D01*
X160221427Y-140908557D02*
X160349999Y-140865700D01*
X160349999Y-140865700D02*
X160392856Y-140822842D01*
X160392856Y-140822842D02*
X160392856Y-140522842D01*
X160392856Y-140522842D02*
X160221427Y-140522842D01*
X104908557Y-117628571D02*
X104008557Y-117628571D01*
X104008557Y-117628571D02*
X104651414Y-117328571D01*
X104651414Y-117328571D02*
X104008557Y-117028571D01*
X104008557Y-117028571D02*
X104908557Y-117028571D01*
X104008557Y-116685714D02*
X104008557Y-116128571D01*
X104008557Y-116128571D02*
X104351414Y-116428571D01*
X104351414Y-116428571D02*
X104351414Y-116300000D01*
X104351414Y-116300000D02*
X104394271Y-116214286D01*
X104394271Y-116214286D02*
X104437128Y-116171428D01*
X104437128Y-116171428D02*
X104522842Y-116128571D01*
X104522842Y-116128571D02*
X104737128Y-116128571D01*
X104737128Y-116128571D02*
X104822842Y-116171428D01*
X104822842Y-116171428D02*
X104865700Y-116214286D01*
X104865700Y-116214286D02*
X104908557Y-116300000D01*
X104908557Y-116300000D02*
X104908557Y-116557143D01*
X104908557Y-116557143D02*
X104865700Y-116642857D01*
X104865700Y-116642857D02*
X104822842Y-116685714D01*
X171091442Y-116171428D02*
X171991442Y-116171428D01*
X171991442Y-116171428D02*
X171348585Y-116471428D01*
X171348585Y-116471428D02*
X171991442Y-116771428D01*
X171991442Y-116771428D02*
X171091442Y-116771428D01*
X171691442Y-117585714D02*
X171091442Y-117585714D01*
X172034300Y-117371428D02*
X171391442Y-117157142D01*
X171391442Y-117157142D02*
X171391442Y-117714285D01*
X104908557Y-153828571D02*
X104008557Y-153828571D01*
X104008557Y-153828571D02*
X104651414Y-153528571D01*
X104651414Y-153528571D02*
X104008557Y-153228571D01*
X104008557Y-153228571D02*
X104908557Y-153228571D01*
X104094271Y-152842857D02*
X104051414Y-152800000D01*
X104051414Y-152800000D02*
X104008557Y-152714286D01*
X104008557Y-152714286D02*
X104008557Y-152500000D01*
X104008557Y-152500000D02*
X104051414Y-152414286D01*
X104051414Y-152414286D02*
X104094271Y-152371428D01*
X104094271Y-152371428D02*
X104179985Y-152328571D01*
X104179985Y-152328571D02*
X104265700Y-152328571D01*
X104265700Y-152328571D02*
X104394271Y-152371428D01*
X104394271Y-152371428D02*
X104908557Y-152885714D01*
X104908557Y-152885714D02*
X104908557Y-152328571D01*
X170238095Y-168304819D02*
X170238095Y-167304819D01*
X170238095Y-167781009D02*
X170809523Y-167781009D01*
X170809523Y-168304819D02*
X170809523Y-167304819D01*
X171714285Y-167638152D02*
X171714285Y-168304819D01*
X171476190Y-167257200D02*
X171238095Y-167971485D01*
X171238095Y-167971485D02*
X171857142Y-167971485D01*
X131554819Y-114761904D02*
X132364342Y-114761904D01*
X132364342Y-114761904D02*
X132459580Y-114714285D01*
X132459580Y-114714285D02*
X132507200Y-114666666D01*
X132507200Y-114666666D02*
X132554819Y-114571428D01*
X132554819Y-114571428D02*
X132554819Y-114380952D01*
X132554819Y-114380952D02*
X132507200Y-114285714D01*
X132507200Y-114285714D02*
X132459580Y-114238095D01*
X132459580Y-114238095D02*
X132364342Y-114190476D01*
X132364342Y-114190476D02*
X131554819Y-114190476D01*
X131554819Y-113809523D02*
X131554819Y-113190476D01*
X131554819Y-113190476D02*
X131935771Y-113523809D01*
X131935771Y-113523809D02*
X131935771Y-113380952D01*
X131935771Y-113380952D02*
X131983390Y-113285714D01*
X131983390Y-113285714D02*
X132031009Y-113238095D01*
X132031009Y-113238095D02*
X132126247Y-113190476D01*
X132126247Y-113190476D02*
X132364342Y-113190476D01*
X132364342Y-113190476D02*
X132459580Y-113238095D01*
X132459580Y-113238095D02*
X132507200Y-113285714D01*
X132507200Y-113285714D02*
X132554819Y-113380952D01*
X132554819Y-113380952D02*
X132554819Y-113666666D01*
X132554819Y-113666666D02*
X132507200Y-113761904D01*
X132507200Y-113761904D02*
X132459580Y-113809523D01*
X151238095Y-115204819D02*
X151238095Y-116014342D01*
X151238095Y-116014342D02*
X151285714Y-116109580D01*
X151285714Y-116109580D02*
X151333333Y-116157200D01*
X151333333Y-116157200D02*
X151428571Y-116204819D01*
X151428571Y-116204819D02*
X151619047Y-116204819D01*
X151619047Y-116204819D02*
X151714285Y-116157200D01*
X151714285Y-116157200D02*
X151761904Y-116109580D01*
X151761904Y-116109580D02*
X151809523Y-116014342D01*
X151809523Y-116014342D02*
X151809523Y-115204819D01*
X152238095Y-115300057D02*
X152285714Y-115252438D01*
X152285714Y-115252438D02*
X152380952Y-115204819D01*
X152380952Y-115204819D02*
X152619047Y-115204819D01*
X152619047Y-115204819D02*
X152714285Y-115252438D01*
X152714285Y-115252438D02*
X152761904Y-115300057D01*
X152761904Y-115300057D02*
X152809523Y-115395295D01*
X152809523Y-115395295D02*
X152809523Y-115490533D01*
X152809523Y-115490533D02*
X152761904Y-115633390D01*
X152761904Y-115633390D02*
X152190476Y-116204819D01*
X152190476Y-116204819D02*
X152809523Y-116204819D01*
X113929580Y-151342857D02*
X113977200Y-151390476D01*
X113977200Y-151390476D02*
X114024819Y-151533333D01*
X114024819Y-151533333D02*
X114024819Y-151628571D01*
X114024819Y-151628571D02*
X113977200Y-151771428D01*
X113977200Y-151771428D02*
X113881961Y-151866666D01*
X113881961Y-151866666D02*
X113786723Y-151914285D01*
X113786723Y-151914285D02*
X113596247Y-151961904D01*
X113596247Y-151961904D02*
X113453390Y-151961904D01*
X113453390Y-151961904D02*
X113262914Y-151914285D01*
X113262914Y-151914285D02*
X113167676Y-151866666D01*
X113167676Y-151866666D02*
X113072438Y-151771428D01*
X113072438Y-151771428D02*
X113024819Y-151628571D01*
X113024819Y-151628571D02*
X113024819Y-151533333D01*
X113024819Y-151533333D02*
X113072438Y-151390476D01*
X113072438Y-151390476D02*
X113120057Y-151342857D01*
X114024819Y-150390476D02*
X114024819Y-150961904D01*
X114024819Y-150676190D02*
X113024819Y-150676190D01*
X113024819Y-150676190D02*
X113167676Y-150771428D01*
X113167676Y-150771428D02*
X113262914Y-150866666D01*
X113262914Y-150866666D02*
X113310533Y-150961904D01*
X113024819Y-149485714D02*
X113024819Y-149961904D01*
X113024819Y-149961904D02*
X113501009Y-150009523D01*
X113501009Y-150009523D02*
X113453390Y-149961904D01*
X113453390Y-149961904D02*
X113405771Y-149866666D01*
X113405771Y-149866666D02*
X113405771Y-149628571D01*
X113405771Y-149628571D02*
X113453390Y-149533333D01*
X113453390Y-149533333D02*
X113501009Y-149485714D01*
X113501009Y-149485714D02*
X113596247Y-149438095D01*
X113596247Y-149438095D02*
X113834342Y-149438095D01*
X113834342Y-149438095D02*
X113929580Y-149485714D01*
X113929580Y-149485714D02*
X113977200Y-149533333D01*
X113977200Y-149533333D02*
X114024819Y-149628571D01*
X114024819Y-149628571D02*
X114024819Y-149866666D01*
X114024819Y-149866666D02*
X113977200Y-149961904D01*
X113977200Y-149961904D02*
X113929580Y-150009523D01*
X109134905Y-149249819D02*
X109134905Y-148249819D01*
X109134905Y-148249819D02*
X109373000Y-148249819D01*
X109373000Y-148249819D02*
X109515857Y-148297438D01*
X109515857Y-148297438D02*
X109611095Y-148392676D01*
X109611095Y-148392676D02*
X109658714Y-148487914D01*
X109658714Y-148487914D02*
X109706333Y-148678390D01*
X109706333Y-148678390D02*
X109706333Y-148821247D01*
X109706333Y-148821247D02*
X109658714Y-149011723D01*
X109658714Y-149011723D02*
X109611095Y-149106961D01*
X109611095Y-149106961D02*
X109515857Y-149202200D01*
X109515857Y-149202200D02*
X109373000Y-149249819D01*
X109373000Y-149249819D02*
X109134905Y-149249819D01*
X110182524Y-149249819D02*
X110373000Y-149249819D01*
X110373000Y-149249819D02*
X110468238Y-149202200D01*
X110468238Y-149202200D02*
X110515857Y-149154580D01*
X110515857Y-149154580D02*
X110611095Y-149011723D01*
X110611095Y-149011723D02*
X110658714Y-148821247D01*
X110658714Y-148821247D02*
X110658714Y-148440295D01*
X110658714Y-148440295D02*
X110611095Y-148345057D01*
X110611095Y-148345057D02*
X110563476Y-148297438D01*
X110563476Y-148297438D02*
X110468238Y-148249819D01*
X110468238Y-148249819D02*
X110277762Y-148249819D01*
X110277762Y-148249819D02*
X110182524Y-148297438D01*
X110182524Y-148297438D02*
X110134905Y-148345057D01*
X110134905Y-148345057D02*
X110087286Y-148440295D01*
X110087286Y-148440295D02*
X110087286Y-148678390D01*
X110087286Y-148678390D02*
X110134905Y-148773628D01*
X110134905Y-148773628D02*
X110182524Y-148821247D01*
X110182524Y-148821247D02*
X110277762Y-148868866D01*
X110277762Y-148868866D02*
X110468238Y-148868866D01*
X110468238Y-148868866D02*
X110563476Y-148821247D01*
X110563476Y-148821247D02*
X110611095Y-148773628D01*
X110611095Y-148773628D02*
X110658714Y-148678390D01*
X113929580Y-119942857D02*
X113977200Y-119990476D01*
X113977200Y-119990476D02*
X114024819Y-120133333D01*
X114024819Y-120133333D02*
X114024819Y-120228571D01*
X114024819Y-120228571D02*
X113977200Y-120371428D01*
X113977200Y-120371428D02*
X113881961Y-120466666D01*
X113881961Y-120466666D02*
X113786723Y-120514285D01*
X113786723Y-120514285D02*
X113596247Y-120561904D01*
X113596247Y-120561904D02*
X113453390Y-120561904D01*
X113453390Y-120561904D02*
X113262914Y-120514285D01*
X113262914Y-120514285D02*
X113167676Y-120466666D01*
X113167676Y-120466666D02*
X113072438Y-120371428D01*
X113072438Y-120371428D02*
X113024819Y-120228571D01*
X113024819Y-120228571D02*
X113024819Y-120133333D01*
X113024819Y-120133333D02*
X113072438Y-119990476D01*
X113072438Y-119990476D02*
X113120057Y-119942857D01*
X114024819Y-118990476D02*
X114024819Y-119561904D01*
X114024819Y-119276190D02*
X113024819Y-119276190D01*
X113024819Y-119276190D02*
X113167676Y-119371428D01*
X113167676Y-119371428D02*
X113262914Y-119466666D01*
X113262914Y-119466666D02*
X113310533Y-119561904D01*
X113024819Y-118657142D02*
X113024819Y-118038095D01*
X113024819Y-118038095D02*
X113405771Y-118371428D01*
X113405771Y-118371428D02*
X113405771Y-118228571D01*
X113405771Y-118228571D02*
X113453390Y-118133333D01*
X113453390Y-118133333D02*
X113501009Y-118085714D01*
X113501009Y-118085714D02*
X113596247Y-118038095D01*
X113596247Y-118038095D02*
X113834342Y-118038095D01*
X113834342Y-118038095D02*
X113929580Y-118085714D01*
X113929580Y-118085714D02*
X113977200Y-118133333D01*
X113977200Y-118133333D02*
X114024819Y-118228571D01*
X114024819Y-118228571D02*
X114024819Y-118514285D01*
X114024819Y-118514285D02*
X113977200Y-118609523D01*
X113977200Y-118609523D02*
X113929580Y-118657142D01*
X132024819Y-139642857D02*
X131548628Y-139976190D01*
X132024819Y-140214285D02*
X131024819Y-140214285D01*
X131024819Y-140214285D02*
X131024819Y-139833333D01*
X131024819Y-139833333D02*
X131072438Y-139738095D01*
X131072438Y-139738095D02*
X131120057Y-139690476D01*
X131120057Y-139690476D02*
X131215295Y-139642857D01*
X131215295Y-139642857D02*
X131358152Y-139642857D01*
X131358152Y-139642857D02*
X131453390Y-139690476D01*
X131453390Y-139690476D02*
X131501009Y-139738095D01*
X131501009Y-139738095D02*
X131548628Y-139833333D01*
X131548628Y-139833333D02*
X131548628Y-140214285D01*
X132024819Y-138690476D02*
X132024819Y-139261904D01*
X132024819Y-138976190D02*
X131024819Y-138976190D01*
X131024819Y-138976190D02*
X131167676Y-139071428D01*
X131167676Y-139071428D02*
X131262914Y-139166666D01*
X131262914Y-139166666D02*
X131310533Y-139261904D01*
X131120057Y-138309523D02*
X131072438Y-138261904D01*
X131072438Y-138261904D02*
X131024819Y-138166666D01*
X131024819Y-138166666D02*
X131024819Y-137928571D01*
X131024819Y-137928571D02*
X131072438Y-137833333D01*
X131072438Y-137833333D02*
X131120057Y-137785714D01*
X131120057Y-137785714D02*
X131215295Y-137738095D01*
X131215295Y-137738095D02*
X131310533Y-137738095D01*
X131310533Y-137738095D02*
X131453390Y-137785714D01*
X131453390Y-137785714D02*
X132024819Y-138357142D01*
X132024819Y-138357142D02*
X132024819Y-137738095D01*
X104238095Y-168304819D02*
X104238095Y-167304819D01*
X104238095Y-167781009D02*
X104809523Y-167781009D01*
X104809523Y-168304819D02*
X104809523Y-167304819D01*
X105190476Y-167304819D02*
X105809523Y-167304819D01*
X105809523Y-167304819D02*
X105476190Y-167685771D01*
X105476190Y-167685771D02*
X105619047Y-167685771D01*
X105619047Y-167685771D02*
X105714285Y-167733390D01*
X105714285Y-167733390D02*
X105761904Y-167781009D01*
X105761904Y-167781009D02*
X105809523Y-167876247D01*
X105809523Y-167876247D02*
X105809523Y-168114342D01*
X105809523Y-168114342D02*
X105761904Y-168209580D01*
X105761904Y-168209580D02*
X105714285Y-168257200D01*
X105714285Y-168257200D02*
X105619047Y-168304819D01*
X105619047Y-168304819D02*
X105333333Y-168304819D01*
X105333333Y-168304819D02*
X105238095Y-168257200D01*
X105238095Y-168257200D02*
X105190476Y-168209580D01*
X137238095Y-128079819D02*
X137238095Y-128889342D01*
X137238095Y-128889342D02*
X137285714Y-128984580D01*
X137285714Y-128984580D02*
X137333333Y-129032200D01*
X137333333Y-129032200D02*
X137428571Y-129079819D01*
X137428571Y-129079819D02*
X137619047Y-129079819D01*
X137619047Y-129079819D02*
X137714285Y-129032200D01*
X137714285Y-129032200D02*
X137761904Y-128984580D01*
X137761904Y-128984580D02*
X137809523Y-128889342D01*
X137809523Y-128889342D02*
X137809523Y-128079819D01*
X138714285Y-128413152D02*
X138714285Y-129079819D01*
X138476190Y-128032200D02*
X138238095Y-128746485D01*
X138238095Y-128746485D02*
X138857142Y-128746485D01*
X159929580Y-119942857D02*
X159977200Y-119990476D01*
X159977200Y-119990476D02*
X160024819Y-120133333D01*
X160024819Y-120133333D02*
X160024819Y-120228571D01*
X160024819Y-120228571D02*
X159977200Y-120371428D01*
X159977200Y-120371428D02*
X159881961Y-120466666D01*
X159881961Y-120466666D02*
X159786723Y-120514285D01*
X159786723Y-120514285D02*
X159596247Y-120561904D01*
X159596247Y-120561904D02*
X159453390Y-120561904D01*
X159453390Y-120561904D02*
X159262914Y-120514285D01*
X159262914Y-120514285D02*
X159167676Y-120466666D01*
X159167676Y-120466666D02*
X159072438Y-120371428D01*
X159072438Y-120371428D02*
X159024819Y-120228571D01*
X159024819Y-120228571D02*
X159024819Y-120133333D01*
X159024819Y-120133333D02*
X159072438Y-119990476D01*
X159072438Y-119990476D02*
X159120057Y-119942857D01*
X160024819Y-118990476D02*
X160024819Y-119561904D01*
X160024819Y-119276190D02*
X159024819Y-119276190D01*
X159024819Y-119276190D02*
X159167676Y-119371428D01*
X159167676Y-119371428D02*
X159262914Y-119466666D01*
X159262914Y-119466666D02*
X159310533Y-119561904D01*
X159358152Y-118133333D02*
X160024819Y-118133333D01*
X158977200Y-118371428D02*
X159691485Y-118609523D01*
X159691485Y-118609523D02*
X159691485Y-117990476D01*
X141857142Y-131929580D02*
X141809523Y-131977200D01*
X141809523Y-131977200D02*
X141666666Y-132024819D01*
X141666666Y-132024819D02*
X141571428Y-132024819D01*
X141571428Y-132024819D02*
X141428571Y-131977200D01*
X141428571Y-131977200D02*
X141333333Y-131881961D01*
X141333333Y-131881961D02*
X141285714Y-131786723D01*
X141285714Y-131786723D02*
X141238095Y-131596247D01*
X141238095Y-131596247D02*
X141238095Y-131453390D01*
X141238095Y-131453390D02*
X141285714Y-131262914D01*
X141285714Y-131262914D02*
X141333333Y-131167676D01*
X141333333Y-131167676D02*
X141428571Y-131072438D01*
X141428571Y-131072438D02*
X141571428Y-131024819D01*
X141571428Y-131024819D02*
X141666666Y-131024819D01*
X141666666Y-131024819D02*
X141809523Y-131072438D01*
X141809523Y-131072438D02*
X141857142Y-131120057D01*
X142809523Y-132024819D02*
X142238095Y-132024819D01*
X142523809Y-132024819D02*
X142523809Y-131024819D01*
X142523809Y-131024819D02*
X142428571Y-131167676D01*
X142428571Y-131167676D02*
X142333333Y-131262914D01*
X142333333Y-131262914D02*
X142238095Y-131310533D01*
X143761904Y-132024819D02*
X143190476Y-132024819D01*
X143476190Y-132024819D02*
X143476190Y-131024819D01*
X143476190Y-131024819D02*
X143380952Y-131167676D01*
X143380952Y-131167676D02*
X143285714Y-131262914D01*
X143285714Y-131262914D02*
X143190476Y-131310533D01*
X109134905Y-117849819D02*
X109134905Y-116849819D01*
X109134905Y-116849819D02*
X109373000Y-116849819D01*
X109373000Y-116849819D02*
X109515857Y-116897438D01*
X109515857Y-116897438D02*
X109611095Y-116992676D01*
X109611095Y-116992676D02*
X109658714Y-117087914D01*
X109658714Y-117087914D02*
X109706333Y-117278390D01*
X109706333Y-117278390D02*
X109706333Y-117421247D01*
X109706333Y-117421247D02*
X109658714Y-117611723D01*
X109658714Y-117611723D02*
X109611095Y-117706961D01*
X109611095Y-117706961D02*
X109515857Y-117802200D01*
X109515857Y-117802200D02*
X109373000Y-117849819D01*
X109373000Y-117849819D02*
X109134905Y-117849819D01*
X110039667Y-116849819D02*
X110706333Y-116849819D01*
X110706333Y-116849819D02*
X110277762Y-117849819D01*
X159929580Y-153342857D02*
X159977200Y-153390476D01*
X159977200Y-153390476D02*
X160024819Y-153533333D01*
X160024819Y-153533333D02*
X160024819Y-153628571D01*
X160024819Y-153628571D02*
X159977200Y-153771428D01*
X159977200Y-153771428D02*
X159881961Y-153866666D01*
X159881961Y-153866666D02*
X159786723Y-153914285D01*
X159786723Y-153914285D02*
X159596247Y-153961904D01*
X159596247Y-153961904D02*
X159453390Y-153961904D01*
X159453390Y-153961904D02*
X159262914Y-153914285D01*
X159262914Y-153914285D02*
X159167676Y-153866666D01*
X159167676Y-153866666D02*
X159072438Y-153771428D01*
X159072438Y-153771428D02*
X159024819Y-153628571D01*
X159024819Y-153628571D02*
X159024819Y-153533333D01*
X159024819Y-153533333D02*
X159072438Y-153390476D01*
X159072438Y-153390476D02*
X159120057Y-153342857D01*
X160024819Y-152390476D02*
X160024819Y-152961904D01*
X160024819Y-152676190D02*
X159024819Y-152676190D01*
X159024819Y-152676190D02*
X159167676Y-152771428D01*
X159167676Y-152771428D02*
X159262914Y-152866666D01*
X159262914Y-152866666D02*
X159310533Y-152961904D01*
X159024819Y-151533333D02*
X159024819Y-151723809D01*
X159024819Y-151723809D02*
X159072438Y-151819047D01*
X159072438Y-151819047D02*
X159120057Y-151866666D01*
X159120057Y-151866666D02*
X159262914Y-151961904D01*
X159262914Y-151961904D02*
X159453390Y-152009523D01*
X159453390Y-152009523D02*
X159834342Y-152009523D01*
X159834342Y-152009523D02*
X159929580Y-151961904D01*
X159929580Y-151961904D02*
X159977200Y-151914285D01*
X159977200Y-151914285D02*
X160024819Y-151819047D01*
X160024819Y-151819047D02*
X160024819Y-151628571D01*
X160024819Y-151628571D02*
X159977200Y-151533333D01*
X159977200Y-151533333D02*
X159929580Y-151485714D01*
X159929580Y-151485714D02*
X159834342Y-151438095D01*
X159834342Y-151438095D02*
X159596247Y-151438095D01*
X159596247Y-151438095D02*
X159501009Y-151485714D01*
X159501009Y-151485714D02*
X159453390Y-151533333D01*
X159453390Y-151533333D02*
X159405771Y-151628571D01*
X159405771Y-151628571D02*
X159405771Y-151819047D01*
X159405771Y-151819047D02*
X159453390Y-151914285D01*
X159453390Y-151914285D02*
X159501009Y-151961904D01*
X159501009Y-151961904D02*
X159596247Y-152009523D01*
X118023810Y-106554819D02*
X118023810Y-105554819D01*
X119071428Y-106459580D02*
X119023809Y-106507200D01*
X119023809Y-106507200D02*
X118880952Y-106554819D01*
X118880952Y-106554819D02*
X118785714Y-106554819D01*
X118785714Y-106554819D02*
X118642857Y-106507200D01*
X118642857Y-106507200D02*
X118547619Y-106411961D01*
X118547619Y-106411961D02*
X118500000Y-106316723D01*
X118500000Y-106316723D02*
X118452381Y-106126247D01*
X118452381Y-106126247D02*
X118452381Y-105983390D01*
X118452381Y-105983390D02*
X118500000Y-105792914D01*
X118500000Y-105792914D02*
X118547619Y-105697676D01*
X118547619Y-105697676D02*
X118642857Y-105602438D01*
X118642857Y-105602438D02*
X118785714Y-105554819D01*
X118785714Y-105554819D02*
X118880952Y-105554819D01*
X118880952Y-105554819D02*
X119023809Y-105602438D01*
X119023809Y-105602438D02*
X119071428Y-105650057D01*
X120023809Y-106554819D02*
X119452381Y-106554819D01*
X119738095Y-106554819D02*
X119738095Y-105554819D01*
X119738095Y-105554819D02*
X119642857Y-105697676D01*
X119642857Y-105697676D02*
X119547619Y-105792914D01*
X119547619Y-105792914D02*
X119452381Y-105840533D01*
X165904761Y-160450057D02*
X165809523Y-160402438D01*
X165809523Y-160402438D02*
X165714285Y-160307200D01*
X165714285Y-160307200D02*
X165571428Y-160164342D01*
X165571428Y-160164342D02*
X165476190Y-160116723D01*
X165476190Y-160116723D02*
X165380952Y-160116723D01*
X165428571Y-160354819D02*
X165333333Y-160307200D01*
X165333333Y-160307200D02*
X165238095Y-160211961D01*
X165238095Y-160211961D02*
X165190476Y-160021485D01*
X165190476Y-160021485D02*
X165190476Y-159688152D01*
X165190476Y-159688152D02*
X165238095Y-159497676D01*
X165238095Y-159497676D02*
X165333333Y-159402438D01*
X165333333Y-159402438D02*
X165428571Y-159354819D01*
X165428571Y-159354819D02*
X165619047Y-159354819D01*
X165619047Y-159354819D02*
X165714285Y-159402438D01*
X165714285Y-159402438D02*
X165809523Y-159497676D01*
X165809523Y-159497676D02*
X165857142Y-159688152D01*
X165857142Y-159688152D02*
X165857142Y-160021485D01*
X165857142Y-160021485D02*
X165809523Y-160211961D01*
X165809523Y-160211961D02*
X165714285Y-160307200D01*
X165714285Y-160307200D02*
X165619047Y-160354819D01*
X165619047Y-160354819D02*
X165428571Y-160354819D01*
X166714285Y-159354819D02*
X166523809Y-159354819D01*
X166523809Y-159354819D02*
X166428571Y-159402438D01*
X166428571Y-159402438D02*
X166380952Y-159450057D01*
X166380952Y-159450057D02*
X166285714Y-159592914D01*
X166285714Y-159592914D02*
X166238095Y-159783390D01*
X166238095Y-159783390D02*
X166238095Y-160164342D01*
X166238095Y-160164342D02*
X166285714Y-160259580D01*
X166285714Y-160259580D02*
X166333333Y-160307200D01*
X166333333Y-160307200D02*
X166428571Y-160354819D01*
X166428571Y-160354819D02*
X166619047Y-160354819D01*
X166619047Y-160354819D02*
X166714285Y-160307200D01*
X166714285Y-160307200D02*
X166761904Y-160259580D01*
X166761904Y-160259580D02*
X166809523Y-160164342D01*
X166809523Y-160164342D02*
X166809523Y-159926247D01*
X166809523Y-159926247D02*
X166761904Y-159831009D01*
X166761904Y-159831009D02*
X166714285Y-159783390D01*
X166714285Y-159783390D02*
X166619047Y-159735771D01*
X166619047Y-159735771D02*
X166428571Y-159735771D01*
X166428571Y-159735771D02*
X166333333Y-159783390D01*
X166333333Y-159783390D02*
X166285714Y-159831009D01*
X166285714Y-159831009D02*
X166238095Y-159926247D01*
X109904761Y-112650057D02*
X109809523Y-112602438D01*
X109809523Y-112602438D02*
X109714285Y-112507200D01*
X109714285Y-112507200D02*
X109571428Y-112364342D01*
X109571428Y-112364342D02*
X109476190Y-112316723D01*
X109476190Y-112316723D02*
X109380952Y-112316723D01*
X109428571Y-112554819D02*
X109333333Y-112507200D01*
X109333333Y-112507200D02*
X109238095Y-112411961D01*
X109238095Y-112411961D02*
X109190476Y-112221485D01*
X109190476Y-112221485D02*
X109190476Y-111888152D01*
X109190476Y-111888152D02*
X109238095Y-111697676D01*
X109238095Y-111697676D02*
X109333333Y-111602438D01*
X109333333Y-111602438D02*
X109428571Y-111554819D01*
X109428571Y-111554819D02*
X109619047Y-111554819D01*
X109619047Y-111554819D02*
X109714285Y-111602438D01*
X109714285Y-111602438D02*
X109809523Y-111697676D01*
X109809523Y-111697676D02*
X109857142Y-111888152D01*
X109857142Y-111888152D02*
X109857142Y-112221485D01*
X109857142Y-112221485D02*
X109809523Y-112411961D01*
X109809523Y-112411961D02*
X109714285Y-112507200D01*
X109714285Y-112507200D02*
X109619047Y-112554819D01*
X109619047Y-112554819D02*
X109428571Y-112554819D01*
X110190476Y-111554819D02*
X110809523Y-111554819D01*
X110809523Y-111554819D02*
X110476190Y-111935771D01*
X110476190Y-111935771D02*
X110619047Y-111935771D01*
X110619047Y-111935771D02*
X110714285Y-111983390D01*
X110714285Y-111983390D02*
X110761904Y-112031009D01*
X110761904Y-112031009D02*
X110809523Y-112126247D01*
X110809523Y-112126247D02*
X110809523Y-112364342D01*
X110809523Y-112364342D02*
X110761904Y-112459580D01*
X110761904Y-112459580D02*
X110714285Y-112507200D01*
X110714285Y-112507200D02*
X110619047Y-112554819D01*
X110619047Y-112554819D02*
X110333333Y-112554819D01*
X110333333Y-112554819D02*
X110238095Y-112507200D01*
X110238095Y-112507200D02*
X110190476Y-112459580D01*
X143563095Y-174239819D02*
X143563095Y-175049342D01*
X143563095Y-175049342D02*
X143610714Y-175144580D01*
X143610714Y-175144580D02*
X143658333Y-175192200D01*
X143658333Y-175192200D02*
X143753571Y-175239819D01*
X143753571Y-175239819D02*
X143944047Y-175239819D01*
X143944047Y-175239819D02*
X144039285Y-175192200D01*
X144039285Y-175192200D02*
X144086904Y-175144580D01*
X144086904Y-175144580D02*
X144134523Y-175049342D01*
X144134523Y-175049342D02*
X144134523Y-174239819D01*
X145134523Y-175239819D02*
X144563095Y-175239819D01*
X144848809Y-175239819D02*
X144848809Y-174239819D01*
X144848809Y-174239819D02*
X144753571Y-174382676D01*
X144753571Y-174382676D02*
X144658333Y-174477914D01*
X144658333Y-174477914D02*
X144563095Y-174525533D01*
X109904761Y-153650057D02*
X109809523Y-153602438D01*
X109809523Y-153602438D02*
X109714285Y-153507200D01*
X109714285Y-153507200D02*
X109571428Y-153364342D01*
X109571428Y-153364342D02*
X109476190Y-153316723D01*
X109476190Y-153316723D02*
X109380952Y-153316723D01*
X109428571Y-153554819D02*
X109333333Y-153507200D01*
X109333333Y-153507200D02*
X109238095Y-153411961D01*
X109238095Y-153411961D02*
X109190476Y-153221485D01*
X109190476Y-153221485D02*
X109190476Y-152888152D01*
X109190476Y-152888152D02*
X109238095Y-152697676D01*
X109238095Y-152697676D02*
X109333333Y-152602438D01*
X109333333Y-152602438D02*
X109428571Y-152554819D01*
X109428571Y-152554819D02*
X109619047Y-152554819D01*
X109619047Y-152554819D02*
X109714285Y-152602438D01*
X109714285Y-152602438D02*
X109809523Y-152697676D01*
X109809523Y-152697676D02*
X109857142Y-152888152D01*
X109857142Y-152888152D02*
X109857142Y-153221485D01*
X109857142Y-153221485D02*
X109809523Y-153411961D01*
X109809523Y-153411961D02*
X109714285Y-153507200D01*
X109714285Y-153507200D02*
X109619047Y-153554819D01*
X109619047Y-153554819D02*
X109428571Y-153554819D01*
X110238095Y-152650057D02*
X110285714Y-152602438D01*
X110285714Y-152602438D02*
X110380952Y-152554819D01*
X110380952Y-152554819D02*
X110619047Y-152554819D01*
X110619047Y-152554819D02*
X110714285Y-152602438D01*
X110714285Y-152602438D02*
X110761904Y-152650057D01*
X110761904Y-152650057D02*
X110809523Y-152745295D01*
X110809523Y-152745295D02*
X110809523Y-152840533D01*
X110809523Y-152840533D02*
X110761904Y-152983390D01*
X110761904Y-152983390D02*
X110190476Y-153554819D01*
X110190476Y-153554819D02*
X110809523Y-153554819D01*
X165904761Y-117450057D02*
X165809523Y-117402438D01*
X165809523Y-117402438D02*
X165714285Y-117307200D01*
X165714285Y-117307200D02*
X165571428Y-117164342D01*
X165571428Y-117164342D02*
X165476190Y-117116723D01*
X165476190Y-117116723D02*
X165380952Y-117116723D01*
X165428571Y-117354819D02*
X165333333Y-117307200D01*
X165333333Y-117307200D02*
X165238095Y-117211961D01*
X165238095Y-117211961D02*
X165190476Y-117021485D01*
X165190476Y-117021485D02*
X165190476Y-116688152D01*
X165190476Y-116688152D02*
X165238095Y-116497676D01*
X165238095Y-116497676D02*
X165333333Y-116402438D01*
X165333333Y-116402438D02*
X165428571Y-116354819D01*
X165428571Y-116354819D02*
X165619047Y-116354819D01*
X165619047Y-116354819D02*
X165714285Y-116402438D01*
X165714285Y-116402438D02*
X165809523Y-116497676D01*
X165809523Y-116497676D02*
X165857142Y-116688152D01*
X165857142Y-116688152D02*
X165857142Y-117021485D01*
X165857142Y-117021485D02*
X165809523Y-117211961D01*
X165809523Y-117211961D02*
X165714285Y-117307200D01*
X165714285Y-117307200D02*
X165619047Y-117354819D01*
X165619047Y-117354819D02*
X165428571Y-117354819D01*
X166714285Y-116688152D02*
X166714285Y-117354819D01*
X166476190Y-116307200D02*
X166238095Y-117021485D01*
X166238095Y-117021485D02*
X166857142Y-117021485D01*
X164912714Y-155059819D02*
X164912714Y-154059819D01*
X164912714Y-154059819D02*
X165150809Y-154059819D01*
X165150809Y-154059819D02*
X165293666Y-154107438D01*
X165293666Y-154107438D02*
X165388904Y-154202676D01*
X165388904Y-154202676D02*
X165436523Y-154297914D01*
X165436523Y-154297914D02*
X165484142Y-154488390D01*
X165484142Y-154488390D02*
X165484142Y-154631247D01*
X165484142Y-154631247D02*
X165436523Y-154821723D01*
X165436523Y-154821723D02*
X165388904Y-154916961D01*
X165388904Y-154916961D02*
X165293666Y-155012200D01*
X165293666Y-155012200D02*
X165150809Y-155059819D01*
X165150809Y-155059819D02*
X164912714Y-155059819D01*
X166436523Y-155059819D02*
X165865095Y-155059819D01*
X166150809Y-155059819D02*
X166150809Y-154059819D01*
X166150809Y-154059819D02*
X166055571Y-154202676D01*
X166055571Y-154202676D02*
X165960333Y-154297914D01*
X165960333Y-154297914D02*
X165865095Y-154345533D01*
X167055571Y-154059819D02*
X167150809Y-154059819D01*
X167150809Y-154059819D02*
X167246047Y-154107438D01*
X167246047Y-154107438D02*
X167293666Y-154155057D01*
X167293666Y-154155057D02*
X167341285Y-154250295D01*
X167341285Y-154250295D02*
X167388904Y-154440771D01*
X167388904Y-154440771D02*
X167388904Y-154678866D01*
X167388904Y-154678866D02*
X167341285Y-154869342D01*
X167341285Y-154869342D02*
X167293666Y-154964580D01*
X167293666Y-154964580D02*
X167246047Y-155012200D01*
X167246047Y-155012200D02*
X167150809Y-155059819D01*
X167150809Y-155059819D02*
X167055571Y-155059819D01*
X167055571Y-155059819D02*
X166960333Y-155012200D01*
X166960333Y-155012200D02*
X166912714Y-154964580D01*
X166912714Y-154964580D02*
X166865095Y-154869342D01*
X166865095Y-154869342D02*
X166817476Y-154678866D01*
X166817476Y-154678866D02*
X166817476Y-154440771D01*
X166817476Y-154440771D02*
X166865095Y-154250295D01*
X166865095Y-154250295D02*
X166912714Y-154155057D01*
X166912714Y-154155057D02*
X166960333Y-154107438D01*
X166960333Y-154107438D02*
X167055571Y-154059819D01*
X137666666Y-107599819D02*
X137666666Y-108314104D01*
X137666666Y-108314104D02*
X137619047Y-108456961D01*
X137619047Y-108456961D02*
X137523809Y-108552200D01*
X137523809Y-108552200D02*
X137380952Y-108599819D01*
X137380952Y-108599819D02*
X137285714Y-108599819D01*
X138095238Y-107695057D02*
X138142857Y-107647438D01*
X138142857Y-107647438D02*
X138238095Y-107599819D01*
X138238095Y-107599819D02*
X138476190Y-107599819D01*
X138476190Y-107599819D02*
X138571428Y-107647438D01*
X138571428Y-107647438D02*
X138619047Y-107695057D01*
X138619047Y-107695057D02*
X138666666Y-107790295D01*
X138666666Y-107790295D02*
X138666666Y-107885533D01*
X138666666Y-107885533D02*
X138619047Y-108028390D01*
X138619047Y-108028390D02*
X138047619Y-108599819D01*
X138047619Y-108599819D02*
X138666666Y-108599819D01*
X155738095Y-107054819D02*
X155738095Y-107864342D01*
X155738095Y-107864342D02*
X155785714Y-107959580D01*
X155785714Y-107959580D02*
X155833333Y-108007200D01*
X155833333Y-108007200D02*
X155928571Y-108054819D01*
X155928571Y-108054819D02*
X156119047Y-108054819D01*
X156119047Y-108054819D02*
X156214285Y-108007200D01*
X156214285Y-108007200D02*
X156261904Y-107959580D01*
X156261904Y-107959580D02*
X156309523Y-107864342D01*
X156309523Y-107864342D02*
X156309523Y-107054819D01*
X157261904Y-107054819D02*
X156785714Y-107054819D01*
X156785714Y-107054819D02*
X156738095Y-107531009D01*
X156738095Y-107531009D02*
X156785714Y-107483390D01*
X156785714Y-107483390D02*
X156880952Y-107435771D01*
X156880952Y-107435771D02*
X157119047Y-107435771D01*
X157119047Y-107435771D02*
X157214285Y-107483390D01*
X157214285Y-107483390D02*
X157261904Y-107531009D01*
X157261904Y-107531009D02*
X157309523Y-107626247D01*
X157309523Y-107626247D02*
X157309523Y-107864342D01*
X157309523Y-107864342D02*
X157261904Y-107959580D01*
X157261904Y-107959580D02*
X157214285Y-108007200D01*
X157214285Y-108007200D02*
X157119047Y-108054819D01*
X157119047Y-108054819D02*
X156880952Y-108054819D01*
X156880952Y-108054819D02*
X156785714Y-108007200D01*
X156785714Y-108007200D02*
X156738095Y-107959580D01*
X170238095Y-102304819D02*
X170238095Y-101304819D01*
X170238095Y-101781009D02*
X170809523Y-101781009D01*
X170809523Y-102304819D02*
X170809523Y-101304819D01*
X171238095Y-101400057D02*
X171285714Y-101352438D01*
X171285714Y-101352438D02*
X171380952Y-101304819D01*
X171380952Y-101304819D02*
X171619047Y-101304819D01*
X171619047Y-101304819D02*
X171714285Y-101352438D01*
X171714285Y-101352438D02*
X171761904Y-101400057D01*
X171761904Y-101400057D02*
X171809523Y-101495295D01*
X171809523Y-101495295D02*
X171809523Y-101590533D01*
X171809523Y-101590533D02*
X171761904Y-101733390D01*
X171761904Y-101733390D02*
X171190476Y-102304819D01*
X171190476Y-102304819D02*
X171809523Y-102304819D01*
X121166666Y-127181009D02*
X121309523Y-127228628D01*
X121309523Y-127228628D02*
X121357142Y-127276247D01*
X121357142Y-127276247D02*
X121404761Y-127371485D01*
X121404761Y-127371485D02*
X121404761Y-127514342D01*
X121404761Y-127514342D02*
X121357142Y-127609580D01*
X121357142Y-127609580D02*
X121309523Y-127657200D01*
X121309523Y-127657200D02*
X121214285Y-127704819D01*
X121214285Y-127704819D02*
X120833333Y-127704819D01*
X120833333Y-127704819D02*
X120833333Y-126704819D01*
X120833333Y-126704819D02*
X121166666Y-126704819D01*
X121166666Y-126704819D02*
X121261904Y-126752438D01*
X121261904Y-126752438D02*
X121309523Y-126800057D01*
X121309523Y-126800057D02*
X121357142Y-126895295D01*
X121357142Y-126895295D02*
X121357142Y-126990533D01*
X121357142Y-126990533D02*
X121309523Y-127085771D01*
X121309523Y-127085771D02*
X121261904Y-127133390D01*
X121261904Y-127133390D02*
X121166666Y-127181009D01*
X121166666Y-127181009D02*
X120833333Y-127181009D01*
X122023809Y-126704819D02*
X122214285Y-126704819D01*
X122214285Y-126704819D02*
X122309523Y-126752438D01*
X122309523Y-126752438D02*
X122404761Y-126847676D01*
X122404761Y-126847676D02*
X122452380Y-127038152D01*
X122452380Y-127038152D02*
X122452380Y-127371485D01*
X122452380Y-127371485D02*
X122404761Y-127561961D01*
X122404761Y-127561961D02*
X122309523Y-127657200D01*
X122309523Y-127657200D02*
X122214285Y-127704819D01*
X122214285Y-127704819D02*
X122023809Y-127704819D01*
X122023809Y-127704819D02*
X121928571Y-127657200D01*
X121928571Y-127657200D02*
X121833333Y-127561961D01*
X121833333Y-127561961D02*
X121785714Y-127371485D01*
X121785714Y-127371485D02*
X121785714Y-127038152D01*
X121785714Y-127038152D02*
X121833333Y-126847676D01*
X121833333Y-126847676D02*
X121928571Y-126752438D01*
X121928571Y-126752438D02*
X122023809Y-126704819D01*
X123071428Y-126704819D02*
X123261904Y-126704819D01*
X123261904Y-126704819D02*
X123357142Y-126752438D01*
X123357142Y-126752438D02*
X123452380Y-126847676D01*
X123452380Y-126847676D02*
X123499999Y-127038152D01*
X123499999Y-127038152D02*
X123499999Y-127371485D01*
X123499999Y-127371485D02*
X123452380Y-127561961D01*
X123452380Y-127561961D02*
X123357142Y-127657200D01*
X123357142Y-127657200D02*
X123261904Y-127704819D01*
X123261904Y-127704819D02*
X123071428Y-127704819D01*
X123071428Y-127704819D02*
X122976190Y-127657200D01*
X122976190Y-127657200D02*
X122880952Y-127561961D01*
X122880952Y-127561961D02*
X122833333Y-127371485D01*
X122833333Y-127371485D02*
X122833333Y-127038152D01*
X122833333Y-127038152D02*
X122880952Y-126847676D01*
X122880952Y-126847676D02*
X122976190Y-126752438D01*
X122976190Y-126752438D02*
X123071428Y-126704819D01*
X123785714Y-126704819D02*
X124357142Y-126704819D01*
X124071428Y-127704819D02*
X124071428Y-126704819D01*
X125214285Y-127704819D02*
X124642857Y-127704819D01*
X124928571Y-127704819D02*
X124928571Y-126704819D01*
X124928571Y-126704819D02*
X124833333Y-126847676D01*
X124833333Y-126847676D02*
X124738095Y-126942914D01*
X124738095Y-126942914D02*
X124642857Y-126990533D01*
X165904761Y-108650057D02*
X165809523Y-108602438D01*
X165809523Y-108602438D02*
X165714285Y-108507200D01*
X165714285Y-108507200D02*
X165571428Y-108364342D01*
X165571428Y-108364342D02*
X165476190Y-108316723D01*
X165476190Y-108316723D02*
X165380952Y-108316723D01*
X165428571Y-108554819D02*
X165333333Y-108507200D01*
X165333333Y-108507200D02*
X165238095Y-108411961D01*
X165238095Y-108411961D02*
X165190476Y-108221485D01*
X165190476Y-108221485D02*
X165190476Y-107888152D01*
X165190476Y-107888152D02*
X165238095Y-107697676D01*
X165238095Y-107697676D02*
X165333333Y-107602438D01*
X165333333Y-107602438D02*
X165428571Y-107554819D01*
X165428571Y-107554819D02*
X165619047Y-107554819D01*
X165619047Y-107554819D02*
X165714285Y-107602438D01*
X165714285Y-107602438D02*
X165809523Y-107697676D01*
X165809523Y-107697676D02*
X165857142Y-107888152D01*
X165857142Y-107888152D02*
X165857142Y-108221485D01*
X165857142Y-108221485D02*
X165809523Y-108411961D01*
X165809523Y-108411961D02*
X165714285Y-108507200D01*
X165714285Y-108507200D02*
X165619047Y-108554819D01*
X165619047Y-108554819D02*
X165428571Y-108554819D01*
X166809523Y-108554819D02*
X166238095Y-108554819D01*
X166523809Y-108554819D02*
X166523809Y-107554819D01*
X166523809Y-107554819D02*
X166428571Y-107697676D01*
X166428571Y-107697676D02*
X166333333Y-107792914D01*
X166333333Y-107792914D02*
X166238095Y-107840533D01*
X104238095Y-102304819D02*
X104238095Y-101304819D01*
X104238095Y-101781009D02*
X104809523Y-101781009D01*
X104809523Y-102304819D02*
X104809523Y-101304819D01*
X105809523Y-102304819D02*
X105238095Y-102304819D01*
X105523809Y-102304819D02*
X105523809Y-101304819D01*
X105523809Y-101304819D02*
X105428571Y-101447676D01*
X105428571Y-101447676D02*
X105333333Y-101542914D01*
X105333333Y-101542914D02*
X105238095Y-101590533D01*
X165107200Y-137333332D02*
X165154819Y-137190475D01*
X165154819Y-137190475D02*
X165154819Y-136952380D01*
X165154819Y-136952380D02*
X165107200Y-136857142D01*
X165107200Y-136857142D02*
X165059580Y-136809523D01*
X165059580Y-136809523D02*
X164964342Y-136761904D01*
X164964342Y-136761904D02*
X164869104Y-136761904D01*
X164869104Y-136761904D02*
X164773866Y-136809523D01*
X164773866Y-136809523D02*
X164726247Y-136857142D01*
X164726247Y-136857142D02*
X164678628Y-136952380D01*
X164678628Y-136952380D02*
X164631009Y-137142856D01*
X164631009Y-137142856D02*
X164583390Y-137238094D01*
X164583390Y-137238094D02*
X164535771Y-137285713D01*
X164535771Y-137285713D02*
X164440533Y-137333332D01*
X164440533Y-137333332D02*
X164345295Y-137333332D01*
X164345295Y-137333332D02*
X164250057Y-137285713D01*
X164250057Y-137285713D02*
X164202438Y-137238094D01*
X164202438Y-137238094D02*
X164154819Y-137142856D01*
X164154819Y-137142856D02*
X164154819Y-136904761D01*
X164154819Y-136904761D02*
X164202438Y-136761904D01*
X164154819Y-136428570D02*
X165154819Y-136190475D01*
X165154819Y-136190475D02*
X164440533Y-135999999D01*
X164440533Y-135999999D02*
X165154819Y-135809523D01*
X165154819Y-135809523D02*
X164154819Y-135571428D01*
X164250057Y-135238094D02*
X164202438Y-135190475D01*
X164202438Y-135190475D02*
X164154819Y-135095237D01*
X164154819Y-135095237D02*
X164154819Y-134857142D01*
X164154819Y-134857142D02*
X164202438Y-134761904D01*
X164202438Y-134761904D02*
X164250057Y-134714285D01*
X164250057Y-134714285D02*
X164345295Y-134666666D01*
X164345295Y-134666666D02*
X164440533Y-134666666D01*
X164440533Y-134666666D02*
X164583390Y-134714285D01*
X164583390Y-134714285D02*
X165154819Y-135285713D01*
X165154819Y-135285713D02*
X165154819Y-134666666D01*
X165388905Y-121659819D02*
X165388905Y-120659819D01*
X165388905Y-120659819D02*
X165627000Y-120659819D01*
X165627000Y-120659819D02*
X165769857Y-120707438D01*
X165769857Y-120707438D02*
X165865095Y-120802676D01*
X165865095Y-120802676D02*
X165912714Y-120897914D01*
X165912714Y-120897914D02*
X165960333Y-121088390D01*
X165960333Y-121088390D02*
X165960333Y-121231247D01*
X165960333Y-121231247D02*
X165912714Y-121421723D01*
X165912714Y-121421723D02*
X165865095Y-121516961D01*
X165865095Y-121516961D02*
X165769857Y-121612200D01*
X165769857Y-121612200D02*
X165627000Y-121659819D01*
X165627000Y-121659819D02*
X165388905Y-121659819D01*
X166531762Y-121088390D02*
X166436524Y-121040771D01*
X166436524Y-121040771D02*
X166388905Y-120993152D01*
X166388905Y-120993152D02*
X166341286Y-120897914D01*
X166341286Y-120897914D02*
X166341286Y-120850295D01*
X166341286Y-120850295D02*
X166388905Y-120755057D01*
X166388905Y-120755057D02*
X166436524Y-120707438D01*
X166436524Y-120707438D02*
X166531762Y-120659819D01*
X166531762Y-120659819D02*
X166722238Y-120659819D01*
X166722238Y-120659819D02*
X166817476Y-120707438D01*
X166817476Y-120707438D02*
X166865095Y-120755057D01*
X166865095Y-120755057D02*
X166912714Y-120850295D01*
X166912714Y-120850295D02*
X166912714Y-120897914D01*
X166912714Y-120897914D02*
X166865095Y-120993152D01*
X166865095Y-120993152D02*
X166817476Y-121040771D01*
X166817476Y-121040771D02*
X166722238Y-121088390D01*
X166722238Y-121088390D02*
X166531762Y-121088390D01*
X166531762Y-121088390D02*
X166436524Y-121136009D01*
X166436524Y-121136009D02*
X166388905Y-121183628D01*
X166388905Y-121183628D02*
X166341286Y-121278866D01*
X166341286Y-121278866D02*
X166341286Y-121469342D01*
X166341286Y-121469342D02*
X166388905Y-121564580D01*
X166388905Y-121564580D02*
X166436524Y-121612200D01*
X166436524Y-121612200D02*
X166531762Y-121659819D01*
X166531762Y-121659819D02*
X166722238Y-121659819D01*
X166722238Y-121659819D02*
X166817476Y-121612200D01*
X166817476Y-121612200D02*
X166865095Y-121564580D01*
X166865095Y-121564580D02*
X166912714Y-121469342D01*
X166912714Y-121469342D02*
X166912714Y-121278866D01*
X166912714Y-121278866D02*
X166865095Y-121183628D01*
X166865095Y-121183628D02*
X166817476Y-121136009D01*
X166817476Y-121136009D02*
X166722238Y-121088390D01*
D11*
%TO.C,U3*%
X132940000Y-111940000D02*
X132995000Y-111940000D01*
X132940000Y-116060000D02*
X132940000Y-111940000D01*
X132995000Y-116060000D02*
X132940000Y-116060000D01*
X143005000Y-111940000D02*
X143060000Y-111940000D01*
X143060000Y-111940000D02*
X143060000Y-116060000D01*
X143060000Y-116060000D02*
X143005000Y-116060000D01*
X132990000Y-116600000D02*
X132660000Y-116840000D01*
X132660000Y-116360000D01*
X132990000Y-116600000D01*
G36*
X132990000Y-116600000D02*
G01*
X132660000Y-116840000D01*
X132660000Y-116360000D01*
X132990000Y-116600000D01*
G37*
%TO.C,U2*%
X151290000Y-116840000D02*
X152700000Y-116840000D01*
X151300000Y-119160000D02*
X152700000Y-119160000D01*
X150920000Y-116890000D02*
X150680000Y-116560000D01*
X151160000Y-116560000D01*
X150920000Y-116890000D01*
G36*
X150920000Y-116890000D02*
G01*
X150680000Y-116560000D01*
X151160000Y-116560000D01*
X150920000Y-116890000D01*
G37*
%TO.C,C15*%
X114490000Y-150840580D02*
X114490000Y-150559420D01*
X115510000Y-150840580D02*
X115510000Y-150559420D01*
%TO.C,C12*%
X135640580Y-135490000D02*
X135359420Y-135490000D01*
X135640580Y-136510000D02*
X135359420Y-136510000D01*
%TO.C,D9*%
X107790000Y-149700000D02*
X107790000Y-151700000D01*
X107790000Y-149700000D02*
X111650000Y-149700000D01*
X107790000Y-151700000D02*
X111650000Y-151700000D01*
%TO.C,RST1*%
X120250000Y-136000000D02*
X120250000Y-138000000D01*
X121300000Y-134700000D02*
X121750000Y-134250000D01*
X121300000Y-139300000D02*
X121750000Y-139750000D01*
X121750000Y-134250000D02*
X124250000Y-134250000D01*
X121750000Y-139750000D02*
X124250000Y-139750000D01*
X124700000Y-134700000D02*
X124250000Y-134250000D01*
X124700000Y-139300000D02*
X124250000Y-139750000D01*
X125750000Y-136000000D02*
X125750000Y-138000000D01*
%TO.C,C13*%
X114490000Y-119440580D02*
X114490000Y-119159420D01*
X115510000Y-119440580D02*
X115510000Y-119159420D01*
%TO.C,R12*%
X132477500Y-139237258D02*
X132477500Y-138762742D01*
X133522500Y-139237258D02*
X133522500Y-138762742D01*
%TO.C,U4*%
X135850000Y-130315000D02*
X135850000Y-130090000D01*
X135850000Y-134150000D02*
X135850000Y-133625000D01*
X135850000Y-134150000D02*
X136375000Y-134150000D01*
X136375000Y-129850000D02*
X136150000Y-129850000D01*
X140150000Y-129850000D02*
X139625000Y-129850000D01*
X140150000Y-129850000D02*
X140150000Y-130375000D01*
X140150000Y-134150000D02*
X139625000Y-134150000D01*
X140150000Y-134150000D02*
X140150000Y-133625000D01*
X135850000Y-129850000D02*
X135610000Y-129520000D01*
X136090000Y-129520000D01*
X135850000Y-129850000D01*
G36*
X135850000Y-129850000D02*
G01*
X135610000Y-129520000D01*
X136090000Y-129520000D01*
X135850000Y-129850000D01*
G37*
%TO.C,C14*%
X160490000Y-119440580D02*
X160490000Y-119159420D01*
X161510000Y-119440580D02*
X161510000Y-119159420D01*
%TO.C,C8*%
X140659420Y-127990000D02*
X140940580Y-127990000D01*
X140659420Y-129010000D02*
X140940580Y-129010000D01*
%TO.C,C11*%
X142238748Y-132515000D02*
X142761252Y-132515000D01*
X142238748Y-133985000D02*
X142761252Y-133985000D01*
%TO.C,C10*%
X160340580Y-110440000D02*
X160059420Y-110440000D01*
X160340580Y-111460000D02*
X160059420Y-111460000D01*
%TO.C,D7*%
X107790000Y-118300000D02*
X107790000Y-120300000D01*
X107790000Y-118300000D02*
X111650000Y-118300000D01*
X107790000Y-120300000D02*
X111650000Y-120300000D01*
%TO.C,C16*%
X160490000Y-152840580D02*
X160490000Y-152559420D01*
X161510000Y-152840580D02*
X161510000Y-152559420D01*
%TO.C,IC1*%
X116940000Y-106940000D02*
X121060000Y-106940000D01*
X116940000Y-107035000D02*
X116940000Y-106940000D01*
X116940000Y-112060000D02*
X116940000Y-111965000D01*
X121060000Y-106940000D02*
X121060000Y-107035000D01*
X121060000Y-111965000D02*
X121060000Y-112060000D01*
X121060000Y-112060000D02*
X116940000Y-112060000D01*
X116400000Y-107030000D02*
X116160000Y-106700000D01*
X116640000Y-106700000D01*
X116400000Y-107030000D01*
G36*
X116400000Y-107030000D02*
G01*
X116160000Y-106700000D01*
X116640000Y-106700000D01*
X116400000Y-107030000D01*
G37*
%TO.C,Q6*%
X165240000Y-155940000D02*
X166760000Y-155940000D01*
X165240000Y-156940000D02*
X165240000Y-155940000D01*
X165240000Y-159060000D02*
X165240000Y-158060000D01*
X166760000Y-155940000D02*
X166760000Y-155990000D01*
X166760000Y-157110000D02*
X166760000Y-157890000D01*
X166760000Y-159010000D02*
X166760000Y-159060000D01*
X166760000Y-159060000D02*
X165240000Y-159060000D01*
X167300000Y-157880000D02*
X167060000Y-157550000D01*
X167540000Y-157550000D01*
X167300000Y-157880000D01*
G36*
X167300000Y-157880000D02*
G01*
X167060000Y-157550000D01*
X167540000Y-157550000D01*
X167300000Y-157880000D01*
G37*
%TO.C,Q3*%
X109240000Y-112940000D02*
X110760000Y-112940000D01*
X109240000Y-112990000D02*
X109240000Y-112940000D01*
X109240000Y-114890000D02*
X109240000Y-114110000D01*
X109240000Y-116060000D02*
X109240000Y-116010000D01*
X110760000Y-112940000D02*
X110760000Y-113940000D01*
X110760000Y-115060000D02*
X110760000Y-116060000D01*
X110760000Y-116060000D02*
X109240000Y-116060000D01*
X108940000Y-114450000D02*
X108460000Y-114450000D01*
X108700000Y-114120000D01*
X108940000Y-114450000D01*
G36*
X108940000Y-114450000D02*
G01*
X108460000Y-114450000D01*
X108700000Y-114120000D01*
X108940000Y-114450000D01*
G37*
D12*
%TO.C,U1*%
X129000000Y-148150000D02*
X129000000Y-148800000D01*
X131450000Y-148150000D02*
X129000000Y-148150000D01*
X147000000Y-148150000D02*
X144550000Y-148150000D01*
X147000000Y-148800000D02*
X147000000Y-148150000D01*
D13*
X148100000Y-166150000D02*
G75*
G02*
X147900000Y-166150000I-100000J0D01*
G01*
X147900000Y-166150000D02*
G75*
G02*
X148100000Y-166150000I100000J0D01*
G01*
D11*
%TO.C,Q2*%
X109240000Y-153940000D02*
X110760000Y-153940000D01*
X109240000Y-153990000D02*
X109240000Y-153940000D01*
X109240000Y-155890000D02*
X109240000Y-155110000D01*
X109240000Y-157060000D02*
X109240000Y-157010000D01*
X110760000Y-153940000D02*
X110760000Y-154940000D01*
X110760000Y-156060000D02*
X110760000Y-157060000D01*
X110760000Y-157060000D02*
X109240000Y-157060000D01*
X108940000Y-155450000D02*
X108460000Y-155450000D01*
X108700000Y-155120000D01*
X108940000Y-155450000D01*
G36*
X108940000Y-155450000D02*
G01*
X108460000Y-155450000D01*
X108700000Y-155120000D01*
X108940000Y-155450000D01*
G37*
%TO.C,Q4*%
X165240000Y-112940000D02*
X166760000Y-112940000D01*
X165240000Y-113940000D02*
X165240000Y-112940000D01*
X165240000Y-116060000D02*
X165240000Y-115060000D01*
X166760000Y-112940000D02*
X166760000Y-112990000D01*
X166760000Y-114110000D02*
X166760000Y-114890000D01*
X166760000Y-116010000D02*
X166760000Y-116060000D01*
X166760000Y-116060000D02*
X165240000Y-116060000D01*
X167300000Y-114880000D02*
X167060000Y-114550000D01*
X167540000Y-114550000D01*
X167300000Y-114880000D01*
G36*
X167300000Y-114880000D02*
G01*
X167060000Y-114550000D01*
X167540000Y-114550000D01*
X167300000Y-114880000D01*
G37*
%TO.C,D10*%
X168210000Y-151700000D02*
X164350000Y-151700000D01*
X168210000Y-153700000D02*
X164350000Y-153700000D01*
X168210000Y-153700000D02*
X168210000Y-151700000D01*
%TO.C,J2*%
X133300000Y-104400000D02*
X133300000Y-102400000D01*
X142700000Y-104400000D02*
X142700000Y-102400000D01*
%TO.C,C6*%
X161459420Y-108390000D02*
X161740580Y-108390000D01*
X161459420Y-109410000D02*
X161740580Y-109410000D01*
%TO.C,U5*%
X155590000Y-108440000D02*
X157410000Y-108440000D01*
X155590000Y-108490000D02*
X155590000Y-108440000D01*
X155590000Y-111560000D02*
X155590000Y-111510000D01*
X157410000Y-108440000D02*
X157410000Y-108490000D01*
X157410000Y-109610000D02*
X157410000Y-110390000D01*
X157410000Y-111510000D02*
X157410000Y-111560000D01*
X157410000Y-111560000D02*
X155590000Y-111560000D01*
X155050000Y-108490000D02*
X154810000Y-108160000D01*
X155290000Y-108160000D01*
X155050000Y-108490000D01*
G36*
X155050000Y-108490000D02*
G01*
X154810000Y-108160000D01*
X155290000Y-108160000D01*
X155050000Y-108490000D01*
G37*
%TO.C,BOOT1*%
X120250000Y-130000000D02*
X120250000Y-132000000D01*
X121300000Y-128700000D02*
X121750000Y-128250000D01*
X121300000Y-133300000D02*
X121750000Y-133750000D01*
X121750000Y-128250000D02*
X124250000Y-128250000D01*
X121750000Y-133750000D02*
X124250000Y-133750000D01*
X124700000Y-128700000D02*
X124250000Y-128250000D01*
X124700000Y-133300000D02*
X124250000Y-133750000D01*
X125750000Y-130000000D02*
X125750000Y-132000000D01*
%TO.C,Q1*%
X165240000Y-108940000D02*
X166760000Y-108940000D01*
X165240000Y-108990000D02*
X165240000Y-108940000D01*
X165240000Y-110890000D02*
X165240000Y-110110000D01*
X165240000Y-112060000D02*
X165240000Y-112010000D01*
X166760000Y-108940000D02*
X166760000Y-109940000D01*
X166760000Y-111060000D02*
X166760000Y-112060000D01*
X166760000Y-112060000D02*
X165240000Y-112060000D01*
X164940000Y-110450000D02*
X164460000Y-110450000D01*
X164700000Y-110120000D01*
X164940000Y-110450000D01*
G36*
X164940000Y-110450000D02*
G01*
X164460000Y-110450000D01*
X164700000Y-110120000D01*
X164940000Y-110450000D01*
G37*
%TO.C,C7*%
X137740000Y-138140580D02*
X137740000Y-137859420D01*
X138760000Y-138140580D02*
X138760000Y-137859420D01*
%TO.C,SW2*%
X165800000Y-131650000D02*
X166750000Y-131650000D01*
X165800000Y-140350000D02*
X165800000Y-131650000D01*
X165800000Y-140350000D02*
X166750000Y-140350000D01*
X169250000Y-131650000D02*
X170200000Y-131650000D01*
X169250000Y-140350000D02*
X170200000Y-140350000D01*
X170200000Y-140350000D02*
X170200000Y-131650000D01*
X170200000Y-137000000D02*
X174200000Y-137000000D01*
X174200000Y-135000000D01*
X170200000Y-135000000D01*
X170200000Y-137000000D01*
X166200000Y-139200000D02*
X165800000Y-139200000D01*
X165800000Y-138800000D01*
X166200000Y-139200000D01*
G36*
X166200000Y-139200000D02*
G01*
X165800000Y-139200000D01*
X165800000Y-138800000D01*
X166200000Y-139200000D01*
G37*
%TO.C,D8*%
X168210000Y-118300000D02*
X164350000Y-118300000D01*
X168210000Y-120300000D02*
X164350000Y-120300000D01*
X168210000Y-120300000D02*
X168210000Y-118300000D01*
%TO.C,D3*%
X168010000Y-103850000D02*
X162500000Y-103850000D01*
X168010000Y-107150000D02*
X162500000Y-107150000D01*
X168010000Y-107150000D02*
X168010000Y-103850000D01*
%TD*%
M02*
