%TF.GenerationSoftware,KiCad,Pcbnew,9.0.6*%
%TF.CreationDate,2026-08-01T23:21:45+07:00*%
%TF.ProjectId,drone,64726f6e-652e-46b6-9963-61645f706362,rev?*%
%TF.SameCoordinates,Original*%
%TF.FileFunction,Soldermask,Top*%
%TF.FilePolarity,Negative*%
%FSLAX46Y46*%
G04 Gerber Fmt 4.6, Leading zero omitted, Abs format (unit mm)*
G04 Created by KiCad (PCBNEW 9.0.6) date 2026-08-01 23:21:45*
%MOMM*%
%LPD*%
G01*
G04 APERTURE LIST*
G04 Aperture macros list*
%AMRoundRect*
0 Rectangle with rounded corners*
0 $1 Rounding radius*
0 $2 $3 $4 $5 $6 $7 $8 $9 X,Y pos of 4 corners*
0 Add a 4 corners polygon primitive as box body*
4,1,4,$2,$3,$4,$5,$6,$7,$8,$9,$2,$3,0*
0 Add four circle primitives for the rounded corners*
1,1,$1+$1,$2,$3*
1,1,$1+$1,$4,$5*
1,1,$1+$1,$6,$7*
1,1,$1+$1,$8,$9*
0 Add four rect primitives between the rounded corners*
20,1,$1+$1,$2,$3,$4,$5,0*
20,1,$1+$1,$4,$5,$6,$7,0*
20,1,$1+$1,$6,$7,$8,$9,0*
20,1,$1+$1,$8,$9,$2,$3,0*%
G04 Aperture macros list end*
%ADD10C,2.200000*%
%ADD11RoundRect,0.150000X0.150000X-0.825000X0.150000X0.825000X-0.150000X0.825000X-0.150000X-0.825000X0*%
%ADD12RoundRect,0.100000X-0.225000X-0.100000X0.225000X-0.100000X0.225000X0.100000X-0.225000X0.100000X0*%
%ADD13RoundRect,0.225000X0.250000X-0.225000X0.250000X0.225000X-0.250000X0.225000X-0.250000X-0.225000X0*%
%ADD14RoundRect,0.450000X-1.600000X-0.800000X1.600000X-0.800000X1.600000X0.800000X-1.600000X0.800000X0*%
%ADD15RoundRect,0.225000X0.225000X0.250000X-0.225000X0.250000X-0.225000X-0.250000X0.225000X-0.250000X0*%
%ADD16RoundRect,0.250000X-0.300000X-0.300000X0.300000X-0.300000X0.300000X0.300000X-0.300000X0.300000X0*%
%ADD17R,1.700000X1.000000*%
%ADD18RoundRect,0.200000X0.275000X-0.200000X0.275000X0.200000X-0.275000X0.200000X-0.275000X-0.200000X0*%
%ADD19RoundRect,0.075000X-0.350000X-0.075000X0.350000X-0.075000X0.350000X0.075000X-0.350000X0.075000X0*%
%ADD20RoundRect,0.075000X0.075000X-0.350000X0.075000X0.350000X-0.075000X0.350000X-0.075000X-0.350000X0*%
%ADD21RoundRect,0.450000X0.800000X-1.600000X0.800000X1.600000X-0.800000X1.600000X-0.800000X-1.600000X0*%
%ADD22RoundRect,0.450000X-0.800000X1.600000X-0.800000X-1.600000X0.800000X-1.600000X0.800000X1.600000X0*%
%ADD23RoundRect,0.225000X-0.225000X-0.250000X0.225000X-0.250000X0.225000X0.250000X-0.225000X0.250000X0*%
%ADD24RoundRect,0.250000X-0.250000X-0.475000X0.250000X-0.475000X0.250000X0.475000X-0.250000X0.475000X0*%
%ADD25RoundRect,0.150000X-0.825000X-0.150000X0.825000X-0.150000X0.825000X0.150000X-0.825000X0.150000X0*%
%ADD26R,2.410000X3.300000*%
%ADD27RoundRect,0.150000X0.587500X0.150000X-0.587500X0.150000X-0.587500X-0.150000X0.587500X-0.150000X0*%
%ADD28RoundRect,0.150000X-0.587500X-0.150000X0.587500X-0.150000X0.587500X0.150000X-0.587500X0.150000X0*%
%ADD29RoundRect,0.102000X1.000000X0.450000X-1.000000X0.450000X-1.000000X-0.450000X1.000000X-0.450000X0*%
%ADD30RoundRect,0.102000X0.450000X1.000000X-0.450000X1.000000X-0.450000X-1.000000X0.450000X-1.000000X0*%
%ADD31RoundRect,0.102000X0.665000X0.665000X-0.665000X0.665000X-0.665000X-0.665000X0.665000X-0.665000X0*%
%ADD32C,0.704000*%
%ADD33RoundRect,0.250000X0.300000X0.300000X-0.300000X0.300000X-0.300000X-0.300000X0.300000X-0.300000X0*%
%ADD34C,0.650000*%
%ADD35R,0.600000X1.450000*%
%ADD36R,0.300000X1.450000*%
%ADD37O,1.000000X2.100000*%
%ADD38O,1.000000X1.600000*%
%ADD39RoundRect,0.150000X-0.512500X-0.150000X0.512500X-0.150000X0.512500X0.150000X-0.512500X0.150000X0*%
%ADD40O,2.200000X1.400000*%
%ADD41R,1.800000X1.800000*%
%ADD42C,1.800000*%
%ADD43RoundRect,0.250000X1.000000X0.650000X-1.000000X0.650000X-1.000000X-0.650000X1.000000X-0.650000X0*%
G04 APERTURE END LIST*
D10*
%TO.C,H4*%
X171000000Y-171000000D03*
%TD*%
D11*
%TO.C,U3*%
X133555000Y-116475000D03*
X134825000Y-116475000D03*
X136095000Y-116475000D03*
X137365000Y-116475000D03*
X138635000Y-116475000D03*
X139905000Y-116475000D03*
X141175000Y-116475000D03*
X142445000Y-116475000D03*
X142445000Y-111525000D03*
X141175000Y-111525000D03*
X139905000Y-111525000D03*
X138635000Y-111525000D03*
X137365000Y-111525000D03*
X136095000Y-111525000D03*
X134825000Y-111525000D03*
X133555000Y-111525000D03*
%TD*%
D12*
%TO.C,U2*%
X151050000Y-117350000D03*
X151050000Y-118000000D03*
X151050000Y-118650000D03*
X152950000Y-118650000D03*
X152950000Y-118000000D03*
X152950000Y-117350000D03*
%TD*%
D13*
%TO.C,C15*%
X115000000Y-151475000D03*
X115000000Y-149925000D03*
%TD*%
D14*
%TO.C,J1*%
X116000000Y-102500000D03*
X120800000Y-102500000D03*
%TD*%
D15*
%TO.C,C12*%
X136275000Y-136000000D03*
X134725000Y-136000000D03*
%TD*%
D16*
%TO.C,D9*%
X108600000Y-150700000D03*
X111400000Y-150700000D03*
%TD*%
D17*
%TO.C,RST1*%
X119850000Y-135100000D03*
X126150000Y-135100000D03*
X119850000Y-138900000D03*
X126150000Y-138900000D03*
%TD*%
D13*
%TO.C,C13*%
X115000000Y-120075000D03*
X115000000Y-118525000D03*
%TD*%
D18*
%TO.C,R12*%
X133000000Y-139825000D03*
X133000000Y-138175000D03*
%TD*%
D10*
%TO.C,H3*%
X105000000Y-171000000D03*
%TD*%
D19*
%TO.C,U4*%
X136050000Y-130750000D03*
X136050000Y-131250000D03*
X136050000Y-131750000D03*
X136050000Y-132250000D03*
X136050000Y-132750000D03*
X136050000Y-133250000D03*
D20*
X136750000Y-133950000D03*
X137250000Y-133950000D03*
X137750000Y-133950000D03*
X138250000Y-133950000D03*
X138750000Y-133950000D03*
X139250000Y-133950000D03*
D19*
X139950000Y-133250000D03*
X139950000Y-132750000D03*
X139950000Y-132250000D03*
X139950000Y-131750000D03*
X139950000Y-131250000D03*
X139950000Y-130750000D03*
D20*
X139250000Y-130050000D03*
X138750000Y-130050000D03*
X138250000Y-130050000D03*
X137750000Y-130050000D03*
X137250000Y-130050000D03*
X136750000Y-130050000D03*
%TD*%
D21*
%TO.C,J3*%
X102000000Y-114500000D03*
X102000000Y-109700000D03*
%TD*%
D13*
%TO.C,C14*%
X161000000Y-120075000D03*
X161000000Y-118525000D03*
%TD*%
D22*
%TO.C,J8*%
X174000000Y-157500000D03*
X174000000Y-162300000D03*
%TD*%
D23*
%TO.C,C8*%
X140025000Y-128500000D03*
X141575000Y-128500000D03*
%TD*%
D24*
%TO.C,C11*%
X141550000Y-133250000D03*
X143450000Y-133250000D03*
%TD*%
D15*
%TO.C,C10*%
X160975000Y-110950000D03*
X159425000Y-110950000D03*
%TD*%
D16*
%TO.C,D7*%
X108600000Y-119300000D03*
X111400000Y-119300000D03*
%TD*%
D13*
%TO.C,C16*%
X161000000Y-153475000D03*
X161000000Y-151925000D03*
%TD*%
D25*
%TO.C,IC1*%
X116525000Y-107595000D03*
X116525000Y-108865000D03*
X116525000Y-110135000D03*
X116525000Y-111405000D03*
X121475000Y-111405000D03*
X121475000Y-110135000D03*
X121475000Y-108865000D03*
X121475000Y-107595000D03*
D26*
X119000000Y-109500000D03*
%TD*%
D27*
%TO.C,Q6*%
X166937500Y-158450000D03*
X166937500Y-156550000D03*
X165062500Y-157500000D03*
%TD*%
D28*
%TO.C,Q3*%
X109062500Y-113550000D03*
X109062500Y-115450000D03*
X110937500Y-114500000D03*
%TD*%
D21*
%TO.C,J6*%
X174000000Y-114500000D03*
X174000000Y-109700000D03*
%TD*%
D29*
%TO.C,U1*%
X146500000Y-166160000D03*
X146500000Y-164890000D03*
X146500000Y-163620000D03*
X146500000Y-162350000D03*
X146500000Y-161080000D03*
X146500000Y-159810000D03*
X146500000Y-158540000D03*
X146500000Y-157270000D03*
X146500000Y-156000000D03*
X146500000Y-154730000D03*
X146500000Y-153460000D03*
X146500000Y-152190000D03*
X146500000Y-150920000D03*
X146500000Y-149650000D03*
D30*
X143715000Y-148650000D03*
X142445000Y-148650000D03*
X141175000Y-148650000D03*
X139905000Y-148650000D03*
X138635000Y-148650000D03*
X137365000Y-148650000D03*
X136095000Y-148650000D03*
X134825000Y-148650000D03*
X133555000Y-148650000D03*
X132285000Y-148650000D03*
D29*
X129500000Y-149650000D03*
X129500000Y-150920000D03*
X129500000Y-152190000D03*
X129500000Y-153460000D03*
X129500000Y-154730000D03*
X129500000Y-156000000D03*
X129500000Y-157270000D03*
X129500000Y-158540000D03*
X129500000Y-159810000D03*
X129500000Y-161080000D03*
X129500000Y-162350000D03*
X129500000Y-163620000D03*
X129500000Y-164890000D03*
X129500000Y-166160000D03*
D31*
X140835000Y-160495000D03*
X139000000Y-160495000D03*
X137165000Y-160495000D03*
X140835000Y-158660000D03*
X139000000Y-158660000D03*
X137165000Y-158660000D03*
X140835000Y-156825000D03*
X139000000Y-156825000D03*
X137165000Y-156825000D03*
D32*
X139917500Y-160495000D03*
X138082500Y-160495000D03*
X140835000Y-159577500D03*
X139000000Y-159577500D03*
X137165000Y-159577500D03*
X139917500Y-158660000D03*
X138082500Y-158660000D03*
X140835000Y-157742500D03*
X139000000Y-157742500D03*
X137165000Y-157742500D03*
X139917500Y-156825000D03*
X138082500Y-156825000D03*
%TD*%
D22*
%TO.C,J7*%
X102000000Y-155500000D03*
X102000000Y-160300000D03*
%TD*%
D28*
%TO.C,Q2*%
X109062500Y-154550000D03*
X109062500Y-156450000D03*
X110937500Y-155500000D03*
%TD*%
D27*
%TO.C,Q4*%
X166937500Y-115450000D03*
X166937500Y-113550000D03*
X165062500Y-114500000D03*
%TD*%
D33*
%TO.C,D10*%
X167400000Y-152700000D03*
X164600000Y-152700000D03*
%TD*%
D34*
%TO.C,J2*%
X140890000Y-105100000D03*
X135110000Y-105100000D03*
D35*
X141250000Y-106545000D03*
X140450000Y-106545000D03*
D36*
X139250000Y-106545000D03*
X138250000Y-106545000D03*
X137750000Y-106545000D03*
X136750000Y-106545000D03*
D35*
X135550000Y-106545000D03*
X134750000Y-106545000D03*
X134750000Y-106545000D03*
X135550000Y-106545000D03*
D36*
X136250000Y-106545000D03*
X137250000Y-106545000D03*
X138750000Y-106545000D03*
X139750000Y-106545000D03*
D35*
X140450000Y-106545000D03*
X141250000Y-106545000D03*
D37*
X142320000Y-105630000D03*
D38*
X142320000Y-101450000D03*
D37*
X133680000Y-105630000D03*
D38*
X133680000Y-101450000D03*
%TD*%
D23*
%TO.C,C6*%
X160825000Y-108900000D03*
X162375000Y-108900000D03*
%TD*%
D39*
%TO.C,U5*%
X155362500Y-109050000D03*
X155362500Y-110000000D03*
X155362500Y-110950000D03*
X157637500Y-110950000D03*
X157637500Y-109050000D03*
%TD*%
D10*
%TO.C,H2*%
X171000000Y-105000000D03*
%TD*%
D17*
%TO.C,BOOT1*%
X119850000Y-129100000D03*
X126150000Y-129100000D03*
X119850000Y-132900000D03*
X126150000Y-132900000D03*
%TD*%
D28*
%TO.C,Q1*%
X165062500Y-109550000D03*
X165062500Y-111450000D03*
X166937500Y-110500000D03*
%TD*%
D13*
%TO.C,C7*%
X138250000Y-138775000D03*
X138250000Y-137225000D03*
%TD*%
D10*
%TO.C,H1*%
X105000000Y-105000000D03*
%TD*%
D40*
%TO.C,SW2*%
X168000000Y-140150000D03*
X168000000Y-131850000D03*
D41*
X168000000Y-138000000D03*
D42*
X168000000Y-136000000D03*
X168000000Y-134000000D03*
%TD*%
D33*
%TO.C,D8*%
X167400000Y-119300000D03*
X164600000Y-119300000D03*
%TD*%
D43*
%TO.C,D3*%
X166500000Y-105500000D03*
X162500000Y-105500000D03*
%TD*%
M02*
