%TF.GenerationSoftware,KiCad,Pcbnew,9.0.6*%
%TF.CreationDate,2026-08-01T23:21:45+07:00*%
%TF.ProjectId,drone,64726f6e-652e-46b6-9963-61645f706362,rev?*%
%TF.SameCoordinates,Original*%
%TF.FileFunction,Soldermask,Bot*%
%TF.FilePolarity,Negative*%
%FSLAX46Y46*%
G04 Gerber Fmt 4.6, Leading zero omitted, Abs format (unit mm)*
G04 Created by KiCad (PCBNEW 9.0.6) date 2026-08-01 23:21:45*
%MOMM*%
%LPD*%
G01*
G04 APERTURE LIST*
G04 Aperture macros list*
%AMRoundRect*
0 Rectangle with rounded corners*
0 $1 Rounding radius*
0 $2 $3 $4 $5 $6 $7 $8 $9 X,Y pos of 4 corners*
0 Add a 4 corners polygon primitive as box body*
4,1,4,$2,$3,$4,$5,$6,$7,$8,$9,$2,$3,0*
0 Add four circle primitives for the rounded corners*
1,1,$1+$1,$2,$3*
1,1,$1+$1,$4,$5*
1,1,$1+$1,$6,$7*
1,1,$1+$1,$8,$9*
0 Add four rect primitives between the rounded corners*
20,1,$1+$1,$2,$3,$4,$5,0*
20,1,$1+$1,$4,$5,$6,$7,0*
20,1,$1+$1,$6,$7,$8,$9,0*
20,1,$1+$1,$8,$9,$2,$3,0*%
G04 Aperture macros list end*
%ADD10C,2.200000*%
%ADD11C,0.704000*%
%ADD12C,0.650000*%
%ADD13O,1.000000X2.100000*%
%ADD14O,1.000000X1.600000*%
%ADD15O,2.200000X1.400000*%
%ADD16R,1.800000X1.800000*%
%ADD17C,1.800000*%
%ADD18RoundRect,0.225000X-0.225000X-0.250000X0.225000X-0.250000X0.225000X0.250000X-0.225000X0.250000X0*%
%ADD19RoundRect,0.218750X-0.218750X-0.256250X0.218750X-0.256250X0.218750X0.256250X-0.218750X0.256250X0*%
%ADD20RoundRect,0.200000X-0.200000X-0.275000X0.200000X-0.275000X0.200000X0.275000X-0.200000X0.275000X0*%
%ADD21RoundRect,0.200000X-0.275000X0.200000X-0.275000X-0.200000X0.275000X-0.200000X0.275000X0.200000X0*%
G04 APERTURE END LIST*
D10*
%TO.C,H4*%
X171000000Y-171000000D03*
%TD*%
%TO.C,H3*%
X105000000Y-171000000D03*
%TD*%
D11*
%TO.C,U1*%
X139917500Y-160495000D03*
X138082500Y-160495000D03*
X140835000Y-159577500D03*
X139000000Y-159577500D03*
X137165000Y-159577500D03*
X139917500Y-158660000D03*
X138082500Y-158660000D03*
X140835000Y-157742500D03*
X139000000Y-157742500D03*
X137165000Y-157742500D03*
X139917500Y-156825000D03*
X138082500Y-156825000D03*
%TD*%
D12*
%TO.C,J2*%
X140890000Y-105100000D03*
X135110000Y-105100000D03*
D13*
X142320000Y-105630000D03*
D14*
X142320000Y-101450000D03*
D13*
X133680000Y-105630000D03*
D14*
X133680000Y-101450000D03*
%TD*%
D10*
%TO.C,H2*%
X171000000Y-105000000D03*
%TD*%
%TO.C,H1*%
X105000000Y-105000000D03*
%TD*%
D15*
%TO.C,SW2*%
X168000000Y-140150000D03*
X168000000Y-131850000D03*
D16*
X168000000Y-138000000D03*
D17*
X168000000Y-136000000D03*
X168000000Y-134000000D03*
%TD*%
D18*
%TO.C,C3*%
X153225000Y-161600000D03*
X154775000Y-161600000D03*
%TD*%
D19*
%TO.C,D4*%
X127212500Y-136000000D03*
X128787500Y-136000000D03*
%TD*%
D20*
%TO.C,R3*%
X111175000Y-108500000D03*
X112825000Y-108500000D03*
%TD*%
%TO.C,R6*%
X121175000Y-112000000D03*
X122825000Y-112000000D03*
%TD*%
%TO.C,R10*%
X131175000Y-130000000D03*
X132825000Y-130000000D03*
%TD*%
%TO.C,R8*%
X132175000Y-109000000D03*
X133825000Y-109000000D03*
%TD*%
%TO.C,R20*%
X161175000Y-116000000D03*
X162825000Y-116000000D03*
%TD*%
D18*
%TO.C,C9*%
X108225000Y-107000000D03*
X109775000Y-107000000D03*
%TD*%
D19*
%TO.C,D5*%
X133212500Y-136000000D03*
X134787500Y-136000000D03*
%TD*%
%TO.C,D1*%
X127212500Y-104000000D03*
X128787500Y-104000000D03*
%TD*%
D20*
%TO.C,R17*%
X136175000Y-136000000D03*
X137825000Y-136000000D03*
%TD*%
%TO.C,R1*%
X150175000Y-161600000D03*
X151825000Y-161600000D03*
%TD*%
%TO.C,R16*%
X130175000Y-136000000D03*
X131825000Y-136000000D03*
%TD*%
%TO.C,R23*%
X138675000Y-109000000D03*
X140325000Y-109000000D03*
%TD*%
%TO.C,R13*%
X155175000Y-107000000D03*
X156825000Y-107000000D03*
%TD*%
%TO.C,R14*%
X148175000Y-136000000D03*
X149825000Y-136000000D03*
%TD*%
%TO.C,R24*%
X141675000Y-109000000D03*
X143325000Y-109000000D03*
%TD*%
%TO.C,R7*%
X124175000Y-112000000D03*
X125825000Y-112000000D03*
%TD*%
%TO.C,R21*%
X115175000Y-153000000D03*
X116825000Y-153000000D03*
%TD*%
%TO.C,R22*%
X161175000Y-157000000D03*
X162825000Y-157000000D03*
%TD*%
%TO.C,R19*%
X115175000Y-116000000D03*
X116825000Y-116000000D03*
%TD*%
D18*
%TO.C,C4*%
X129225000Y-109000000D03*
X130775000Y-109000000D03*
%TD*%
D20*
%TO.C,R2*%
X124175000Y-149700000D03*
X125825000Y-149700000D03*
%TD*%
%TO.C,R11*%
X134175000Y-130000000D03*
X135825000Y-130000000D03*
%TD*%
%TO.C,R9*%
X135175000Y-109000000D03*
X136825000Y-109000000D03*
%TD*%
D18*
%TO.C,C1*%
X153225000Y-164900000D03*
X154775000Y-164900000D03*
%TD*%
D20*
%TO.C,R5*%
X118175000Y-112500000D03*
X119825000Y-112500000D03*
%TD*%
D18*
%TO.C,C5*%
X155225000Y-104000000D03*
X156775000Y-104000000D03*
%TD*%
D19*
%TO.C,D2*%
X123712500Y-104000000D03*
X125287500Y-104000000D03*
%TD*%
D18*
%TO.C,C2*%
X150225000Y-164900000D03*
X151775000Y-164900000D03*
%TD*%
D20*
%TO.C,R18*%
X142175000Y-136000000D03*
X143825000Y-136000000D03*
%TD*%
D19*
%TO.C,POW_LED1*%
X145212500Y-136000000D03*
X146787500Y-136000000D03*
%TD*%
%TO.C,D6*%
X139212500Y-136000000D03*
X140787500Y-136000000D03*
%TD*%
D20*
%TO.C,R15*%
X158175000Y-107000000D03*
X159825000Y-107000000D03*
%TD*%
D21*
%TO.C,R4*%
X127212500Y-107075000D03*
X127212500Y-108725000D03*
%TD*%
M02*
